<svg width="43" height="42" viewBox="0 0 43 42" fill="none"
  xmlns="http://www.w3.org/2000/svg">
  <g opacity="0.3">
    <path d="M12.9972 9.1233C12.9508 8.90962 12.9713 8.68682 13.056 8.4852C13.1406 8.28357 13.2853 8.1129 13.4703 7.99637C13.6553 7.87984 13.8718 7.8231 14.0902 7.83388C14.3086 7.84465 14.5184 7.9224 14.691 8.05658L17.0344 9.86743C18.8712 11.2879 20.9959 12.2903 23.2602 12.8046C25.5245 13.319 27.8738 13.3329 30.144 12.8453L33.0379 12.2257C33.2516 12.1793 33.4744 12.1998 33.676 12.2845C33.8776 12.3691 34.0483 12.5138 34.1648 12.6988C34.2814 12.8838 34.3381 13.1002 34.3273 13.3186C34.3166 13.5371 34.2388 13.7468 34.1046 13.9195L32.2956 16.2618C30.8751 18.0986 29.8727 20.2233 29.3584 22.4876C28.844 24.7518 28.8302 27.1011 29.3177 29.3713L29.9373 32.2653C29.9837 32.4789 29.9632 32.7017 29.8786 32.9034C29.7939 33.105 29.6493 33.2757 29.4642 33.3922C29.2792 33.5087 29.0628 33.5655 28.8444 33.5547C28.626 33.5439 28.4162 33.4662 28.2435 33.332L25.9012 31.5229C24.0644 30.1025 21.9397 29.1001 19.6754 28.5857C17.4112 28.0714 15.0619 28.0575 12.7917 28.545L9.89595 29.1658C9.68226 29.2122 9.45947 29.1917 9.25784 29.107C9.05622 29.0224 8.88554 28.8777 8.76901 28.6927C8.65248 28.5077 8.59575 28.2913 8.60652 28.0729C8.61729 27.8544 8.69505 27.6447 8.82922 27.472L10.6401 25.1286C12.0605 23.2918 13.0629 21.1671 13.5773 18.9028C14.0916 16.6385 14.1055 14.2893 13.618 12.019L12.9972 9.1233Z" fill="url(#paint0_linear_784_4552)"/>
  </g>
  <defs>
    <linearGradient id="paint0_linear_784_4552" x1="33.2232" y1="34.3267" x2="33.9241" y2="6.48287" gradientUnits="userSpaceOnUse">
      <stop stop-color="#AB814E"/>
      <stop offset="1" stop-color="#FFE1B9"/>
    </linearGradient>
  </defs>
</svg>
