<svg width="49" height="50" viewBox="0 0 49 50" fill="none"
  xmlns="http://www.w3.org/2000/svg">
  <g opacity="0.3">
    <path d="M22.8677 1.28077C22.9895 0.945177 23.2117 0.655228 23.504 0.450324C23.7964 0.245419 24.1447 0.135498 24.5017 0.135498C24.8587 0.135498 25.2071 0.245419 25.4995 0.450324C25.7918 0.655228 26.014 0.945177 26.1358 1.28077L27.7976 5.82134C29.0993 9.38181 31.1625 12.6152 33.8431 15.2958C36.5237 17.9765 39.7572 20.0396 43.3176 21.3413L47.8547 23.0032C48.1903 23.125 48.4803 23.3472 48.6852 23.6395C48.8901 23.9319 49 24.2802 49 24.6372C49 24.9942 48.8901 25.3426 48.6852 25.635C48.4803 25.9273 48.1903 26.1495 47.8547 26.2713L43.3176 27.9331C39.7572 29.2348 36.5237 31.298 33.8431 33.9786C31.1625 36.6592 29.0993 39.8927 27.7976 43.4531L26.1358 47.9902C26.014 48.3258 25.7918 48.6158 25.4995 48.8207C25.2071 49.0256 24.8587 49.1355 24.5017 49.1355C24.1447 49.1355 23.7964 49.0256 23.504 48.8207C23.2117 48.6158 22.9895 48.3258 22.8677 47.9902L21.2058 43.4531C19.9041 39.8927 17.841 36.6592 15.1603 33.9786C12.4797 31.298 9.24631 29.2348 5.68584 27.9331L1.14527 26.2713C0.809679 26.1495 0.51973 25.9273 0.314826 25.635C0.109921 25.3426 0 24.9942 0 24.6372C0 24.2802 0.109921 23.9319 0.314826 23.6395C0.51973 23.3472 0.809679 23.125 1.14527 23.0032L5.68584 21.3413C9.24631 20.0396 12.4797 17.9765 15.1603 15.2958C17.841 12.6152 19.9041 9.38181 21.2058 5.82134L22.8677 1.28077Z" fill="url(#paint0_linear_784_4541)"/>
  </g>
  <defs>
    <linearGradient id="paint0_linear_784_4541" x1="28.8817" y1="53.6971" x2="54.0756" y2="15.8404" gradientUnits="userSpaceOnUse">
      <stop stop-color="#AB814E"/>
      <stop offset="1" stop-color="#FFE1B9"/>
    </linearGradient>
  </defs>
</svg>
