<svg width="394" height="305" viewBox="0 0 394 305" fill="none" xmlns="http://www.w3.org/2000/svg">
<path d="M64.5141 278.882C64.5141 278.882 498.159 262.481 679.752 -338" stroke="url(#paint0_linear_900_2654)" stroke-width="3"/>
<path d="M83.5544 284.452C83.8604 284.41 84.1458 284.274 84.372 284.064C84.5982 283.853 84.7541 283.578 84.8185 283.276C84.8829 282.974 84.8528 282.66 84.7321 282.375C84.6115 282.091 84.4062 281.85 84.1442 281.687L80.6018 279.461C77.8237 277.717 75.4598 275.387 73.6751 272.635C71.8905 269.883 70.7281 266.774 70.2692 263.526L69.6818 259.387C69.6393 259.081 69.5036 258.795 69.2932 258.569C69.0827 258.343 68.8078 258.187 68.5057 258.123C68.2036 258.058 67.8889 258.088 67.6045 258.209C67.3202 258.33 67.0798 258.535 66.9162 258.797L64.6909 262.336C62.9468 265.114 60.6172 267.478 57.865 269.263C55.1127 271.048 52.004 272.21 48.7561 272.669L44.6167 273.256C44.3107 273.299 44.0252 273.435 43.799 273.645C43.5729 273.855 43.417 274.13 43.3526 274.432C43.2881 274.735 43.3183 275.049 43.4389 275.334C43.5595 275.618 43.7648 275.858 44.0268 276.022L47.5663 278.247C50.3444 279.991 52.7083 282.321 54.493 285.073C56.2776 287.825 57.44 290.934 57.8989 294.182L58.4857 298.324C58.5282 298.63 58.6639 298.916 58.8743 299.142C59.0847 299.368 59.3597 299.524 59.6618 299.588C59.9639 299.653 60.2786 299.623 60.5629 299.502C60.8473 299.382 61.0877 299.176 61.2513 298.914L63.4772 295.372C65.2213 292.594 67.5509 290.23 70.3031 288.445C73.0554 286.661 76.1641 285.498 79.412 285.039L83.5544 284.452Z" fill="url(#paint1_linear_900_2654)"/>
<defs>
<linearGradient id="paint0_linear_900_2654" x1="769.466" y1="-125.716" x2="178.78" y2="-217.611" gradientUnits="userSpaceOnUse">
<stop offset="0.399307" stop-color="#AB814E" stop-opacity="0"/>
<stop offset="1" stop-color="#FFE1B9"/>
</linearGradient>
<linearGradient id="paint1_linear_900_2654" x1="40.2829" y1="269.903" x2="76.866" y2="255.415" gradientUnits="userSpaceOnUse">
<stop stop-color="#AB814E"/>
<stop offset="1" stop-color="#FFE1B9"/>
</linearGradient>
</defs>
</svg>
