<svg width="248" height="212" viewBox="0 0 248 212" fill="none" xmlns="http://www.w3.org/2000/svg">
<path opacity="0.6" d="M86.8363 53.978C93.641 38.6355 93.2121 22.3158 93.2121 6C99.1647 13.546 100.069 17.9302 114.384 24.9251C128.699 31.9199 147.103 38.8907 170.109 37.7528C186.962 36.9192 208.964 29.4895 226.327 24.9251C211.133 40.3017 181.215 76.8803 183.096 100.182C183.096 119.703 188.517 138.56 205.8 150.747C216.202 158.082 228.93 162.188 240.089 168.342C240.787 168.726 242.6 170.063 241.8 169.968C238.728 169.603 235.742 168.753 232.703 168.194C199.356 162.057 165.413 162.056 133.8 175.734C123.282 180.285 115.544 189.005 109.774 198.282C109.168 199.255 101.928 212.851 101.765 211.958C99.9397 201.979 101.728 191.229 100.21 181.057C97.6063 163.605 89.5578 141.551 75.4842 129.309C63.7041 119.062 46.8147 112.165 31.7865 107.87C23.8336 105.597 -0.575979 102.709 7.68272 101.882C19.469 100.702 31.2144 100.815 42.05 95.3026C58.417 86.976 79.412 70.7173 86.8363 53.978Z" stroke="url(#paint0_linear_897_2622)" stroke-width="12" stroke-linecap="round" stroke-linejoin="round"/>
<defs>
<linearGradient id="paint0_linear_897_2622" x1="140.457" y1="295.858" x2="270.654" y2="75.7053" gradientUnits="userSpaceOnUse">
<stop stop-color="#C4AD90"/>
<stop offset="0.320692" stop-color="#B28C5F"/>
<stop offset="0.443415" stop-color="#AB814E"/>
<stop offset="0.61722" stop-color="#C69F70"/>
<stop offset="1" stop-color="#FFE1B9"/>
</linearGradient>
</defs>
</svg>
