<svg width="264" height="161" viewBox="0 0 264 161" fill="none" xmlns="http://www.w3.org/2000/svg">
<g opacity="0.8" filter="url(#filter0_b_737_2606)">
<mask id="path-1-inside-1_737_2606" fill="white">
<path fill-rule="evenodd" clip-rule="evenodd" d="M145.243 88.9739L255.742 18.5454L256.312 18.1824C272.04 8.15752 290.027 8.24628 296.486 18.3807L359.409 117.103C365.868 127.238 358.354 143.58 342.626 153.605L342.056 153.968L231.557 224.396L230.988 224.759C230.221 225.248 229.449 225.713 228.673 226.153C227.945 226.671 227.198 227.175 226.431 227.664L225.861 228.027L115.363 298.455L114.793 298.818C99.0645 308.843 81.0777 308.754 74.6183 298.62L11.6957 199.897C5.23635 189.763 12.7505 173.421 28.4791 163.396L29.0487 163.033L139.547 92.6043L140.117 92.2412C140.884 91.7525 141.656 91.2878 142.432 90.8471C143.159 90.3296 143.907 89.8258 144.674 89.3369L145.243 88.9739Z"/>
</mask>
<path fill-rule="evenodd" clip-rule="evenodd" d="M145.243 88.9739L255.742 18.5454L256.312 18.1824C272.04 8.15752 290.027 8.24628 296.486 18.3807L359.409 117.103C365.868 127.238 358.354 143.58 342.626 153.605L342.056 153.968L231.557 224.396L230.988 224.759C230.221 225.248 229.449 225.713 228.673 226.153C227.945 226.671 227.198 227.175 226.431 227.664L225.861 228.027L115.363 298.455L114.793 298.818C99.0645 308.843 81.0777 308.754 74.6183 298.62L11.6957 199.897C5.23635 189.763 12.7505 173.421 28.4791 163.396L29.0487 163.033L139.547 92.6043L140.117 92.2412C140.884 91.7525 141.656 91.2878 142.432 90.8471C143.159 90.3296 143.907 89.8258 144.674 89.3369L145.243 88.9739Z" fill="url(#paint0_linear_737_2606)" fill-opacity="0.46"/>
<path d="M255.742 18.5454L254.222 16.1604L255.742 18.5454ZM145.243 88.9739L146.763 91.3589L145.243 88.9739ZM256.312 18.1824L257.832 20.5675L256.312 18.1824ZM296.486 18.3807L298.871 16.8605L296.486 18.3807ZM359.409 117.103L357.024 118.623L359.409 117.103ZM342.626 153.605L341.105 151.22L342.626 153.605ZM342.056 153.968L343.576 156.353L342.056 153.968ZM228.673 226.153L227.276 223.694L227.151 223.765L227.033 223.849L228.673 226.153ZM74.6183 298.62L72.2333 300.14L74.6183 298.62ZM11.6957 199.897L9.31061 201.417L11.6957 199.897ZM28.4791 163.396L26.9589 161.011L28.4791 163.396ZM29.0487 163.033L30.5688 165.418L29.0487 163.033ZM139.547 92.6043L138.027 90.2192L139.547 92.6043ZM142.432 90.8471L143.829 93.3065L143.954 93.2353L144.072 93.1516L142.432 90.8471ZM144.674 89.3369L143.154 86.9518L144.674 89.3369ZM254.222 16.1604L143.723 86.5888L146.763 91.3589L257.262 20.9305L254.222 16.1604ZM254.791 15.7973L254.222 16.1604L257.262 20.9305L257.832 20.5675L254.791 15.7973ZM298.871 16.8605C294.951 10.7092 287.744 7.93227 279.889 7.8935C271.999 7.85457 263.045 10.5368 254.791 15.7973L257.832 20.5675C265.307 15.8031 273.211 13.5173 279.861 13.5501C286.547 13.5831 291.563 15.9177 294.101 19.9008L298.871 16.8605ZM361.794 115.583L298.871 16.8605L294.101 19.9008L357.024 118.623L361.794 115.583ZM344.146 155.99C352.399 150.729 358.611 143.745 361.907 136.577C365.189 129.44 365.715 121.734 361.794 115.583L357.024 118.623C359.563 122.606 359.561 128.139 356.768 134.213C353.99 140.256 348.581 146.455 341.105 151.22L344.146 155.99ZM343.576 156.353L344.146 155.99L341.105 151.22L340.536 151.583L343.576 156.353ZM233.077 226.781L343.576 156.353L340.536 151.583L230.037 222.011L233.077 226.781ZM232.508 227.144L233.077 226.781L230.037 222.011L229.468 222.374L232.508 227.144ZM230.069 228.613C230.887 228.148 231.701 227.659 232.508 227.144L229.468 222.374C228.741 222.837 228.01 223.277 227.276 223.694L230.069 228.613ZM227.951 230.049C228.759 229.534 229.546 229.003 230.312 228.458L227.033 223.849C226.345 224.338 225.637 224.815 224.911 225.279L227.951 230.049ZM227.382 230.412L227.951 230.049L224.911 225.279L224.341 225.642L227.382 230.412ZM116.883 300.84L227.382 230.412L224.341 225.642L113.842 296.07L116.883 300.84ZM116.313 301.203L116.883 300.84L113.842 296.07L113.273 296.433L116.313 301.203ZM72.2333 300.14C76.1539 306.291 83.361 309.068 91.2158 309.107C99.1057 309.146 108.06 306.464 116.313 301.203L113.273 296.433C105.798 301.197 97.8941 303.483 91.2437 303.45C84.5581 303.417 79.5421 301.083 77.0034 297.1L72.2333 300.14ZM9.31061 201.417L72.2333 300.14L77.0034 297.1L14.0807 198.377L9.31061 201.417ZM26.9589 161.011C18.7054 166.271 12.4933 173.255 9.19722 180.424C5.91579 187.561 5.39 195.266 9.31061 201.417L14.0807 198.377C11.542 194.394 11.5437 188.861 14.3366 182.787C17.1149 176.745 22.5242 170.545 29.9993 165.781L26.9589 161.011ZM27.5285 160.648L26.9589 161.011L29.9993 165.781L30.5688 165.418L27.5285 160.648ZM138.027 90.2192L27.5285 160.648L30.5688 165.418L141.068 94.9893L138.027 90.2192ZM138.597 89.8562L138.027 90.2192L141.068 94.9893L141.637 94.6263L138.597 89.8562ZM141.035 88.3877C140.217 88.8521 139.404 89.3416 138.597 89.8562L141.637 94.6263C142.364 94.1634 143.095 93.7234 143.829 93.3065L141.035 88.3877ZM143.154 86.9518C142.346 87.4665 141.559 87.9972 140.792 88.5426L144.072 93.1516C144.76 92.6621 145.467 92.185 146.194 91.722L143.154 86.9518ZM143.723 86.5888L143.154 86.9518L146.194 91.722L146.763 91.3589L143.723 86.5888Z" fill="url(#paint1_linear_737_2606)" mask="url(#path-1-inside-1_737_2606)"/>
</g>
<g opacity="0.5">
<g filter="url(#filter1_b_737_2606)">
<path d="M389.391 146.055L217.869 258.044L222.388 27.4321L389.391 146.055Z" fill="url(#paint2_linear_737_2606)" fill-opacity="0.5"/>
</g>
</g>
<defs>
<filter id="filter0_b_737_2606" x="-12.0892" y="-10.7474" width="395.283" height="338.495" filterUnits="userSpaceOnUse" color-interpolation-filters="sRGB">
<feFlood flood-opacity="0" result="BackgroundImageFix"/>
<feGaussianBlur in="BackgroundImageFix" stdDeviation="10.7344"/>
<feComposite in2="SourceAlpha" operator="in" result="effect1_backgroundBlur_737_2606"/>
<feBlend mode="normal" in="SourceGraphic" in2="effect1_backgroundBlur_737_2606" result="shape"/>
</filter>
<filter id="filter1_b_737_2606" x="214.57" y="24.1324" width="178.121" height="237.211" filterUnits="userSpaceOnUse" color-interpolation-filters="sRGB">
<feFlood flood-opacity="0" result="BackgroundImageFix"/>
<feGaussianBlur in="BackgroundImageFix" stdDeviation="1.64986"/>
<feComposite in2="SourceAlpha" operator="in" result="effect1_backgroundBlur_737_2606"/>
<feBlend mode="normal" in="SourceGraphic" in2="effect1_backgroundBlur_737_2606" result="shape"/>
</filter>
<linearGradient id="paint0_linear_737_2606" x1="328.722" y1="-13.0414" x2="266.505" y2="340.52" gradientUnits="userSpaceOnUse">
<stop stop-color="white"/>
<stop offset="0.429606" stop-color="#FF8C00" stop-opacity="0.12"/>
<stop offset="0.653836" stop-color="#FF9008" stop-opacity="0.1904"/>
<stop offset="1" stop-color="#FFD199"/>
</linearGradient>
<linearGradient id="paint1_linear_737_2606" x1="259.551" y1="-3.90591" x2="296.161" y2="166.461" gradientUnits="userSpaceOnUse">
<stop stop-color="#D6B285"/>
<stop offset="1" stop-color="white" stop-opacity="0"/>
</linearGradient>
<linearGradient id="paint2_linear_737_2606" x1="389.391" y1="146.055" x2="163.708" y2="141.632" gradientUnits="userSpaceOnUse">
<stop stop-color="#AB814E" stop-opacity="0.17"/>
<stop offset="0.0001" stop-color="#DBB88B"/>
<stop offset="0.270833" stop-color="#A18668" stop-opacity="0.72924"/>
<stop offset="0.536458" stop-color="#685546" stop-opacity="0.463588"/>
<stop offset="1" stop-color="#05000A" stop-opacity="0"/>
</linearGradient>
</defs>
</svg>
