<svg width="164" height="46" viewBox="0 0 164 46" fill="none" xmlns="http://www.w3.org/2000/svg">
<path d="M28.1267 30.322C28.1267 30.322 -97.6573 -57.0121 -30.0292 -314" stroke="url(#paint0_linear_737_2367)" stroke-width="1.19466"/>
<path d="M21.3294 28.8228C21.247 28.7497 21.1895 28.6459 21.1648 28.5253C21.1401 28.4048 21.1494 28.2735 21.1914 28.1493C21.2335 28.025 21.3062 27.9139 21.3998 27.8309C21.4933 27.7479 21.6031 27.6971 21.7143 27.6854L23.2201 27.5226C24.4007 27.3955 25.5766 26.9734 26.6657 26.2858C27.7548 25.5982 28.7309 24.6617 29.5257 23.5416L30.5395 22.1147C30.6142 22.009 30.7124 21.9285 30.8209 21.8839C30.9294 21.8393 31.0428 21.833 31.1459 21.8657C31.2489 21.8983 31.3364 21.9685 31.3966 22.0665C31.4569 22.1646 31.4868 22.2859 31.4825 22.4138L31.4276 24.145C31.3839 25.5033 31.5984 26.8175 32.0562 27.9958C32.5139 29.1741 33.2039 30.1881 34.0779 30.967L35.1913 31.9607C35.2737 32.0338 35.3312 32.1376 35.3559 32.2581C35.3806 32.3786 35.3713 32.5099 35.3293 32.6342C35.2872 32.7585 35.2145 32.8696 35.1209 32.9526C35.0274 33.0356 34.9176 33.0864 34.8064 33.0981L33.3016 33.2612C32.121 33.3883 30.9451 33.8104 29.856 34.498C28.7669 35.1856 27.7909 36.1221 26.996 37.2422L25.9818 38.6703C25.9071 38.776 25.8089 38.8566 25.7004 38.9011C25.5919 38.9457 25.4785 38.952 25.3754 38.9194C25.2724 38.8867 25.1849 38.8166 25.1247 38.7185C25.0644 38.6204 25.0345 38.4992 25.0389 38.3712L25.0941 36.6388C25.1378 35.2805 24.9233 33.9663 24.4655 32.788C24.0078 31.6097 23.3178 30.5957 22.4438 29.8168L21.3294 28.8228Z" fill="url(#paint1_linear_737_2367)"/>
<rect width="1.43084" height="1.27282" rx="0.636411" transform="matrix(-0.599014 0.794733 0.789046 0.606035 7.53723 14.0229)" fill="url(#paint2_linear_737_2367)"/>
<rect width="6.29228" height="5.33962" rx="2.66981" transform="matrix(-0.564412 0.825493 0.762404 0.647102 23.2563 11.4131)" stroke="url(#paint3_linear_737_2367)" stroke-width="1.19466"/>
<defs>
<linearGradient id="paint0_linear_737_2367" x1="-99.7609" y1="-251.985" x2="94.9347" y2="-175.975" gradientUnits="userSpaceOnUse">
<stop offset="0.399307" stop-color="#AB814E" stop-opacity="0"/>
<stop offset="1" stop-color="#FFE1B9"/>
</linearGradient>
<linearGradient id="paint1_linear_737_2367" x1="37.1612" y1="31.5273" x2="27.3858" y2="20.9805" gradientUnits="userSpaceOnUse">
<stop stop-color="#AB814E"/>
<stop offset="1" stop-color="#FFE1B9"/>
</linearGradient>
<linearGradient id="paint2_linear_737_2367" x1="0.843371" y1="1.39131" x2="1.46537" y2="0.34065" gradientUnits="userSpaceOnUse">
<stop stop-color="#AB814E"/>
<stop offset="1" stop-color="#FFE1B9"/>
</linearGradient>
<linearGradient id="paint3_linear_737_2367" x1="3.70881" y1="5.8367" x2="6.25753" y2="1.32368" gradientUnits="userSpaceOnUse">
<stop stop-color="#AB814E"/>
<stop offset="1" stop-color="#FFE1B9"/>
</linearGradient>
</defs>
</svg>
