<svg width="192" height="257" viewBox="0 0 192 257" fill="none" xmlns="http://www.w3.org/2000/svg">
<path d="M-31.7443 73.1606L-27.7909 73.7688L-27.7539 73.5285L-27.7463 73.2855L-31.7443 73.1606ZM-44 4.5L-40.4257 2.70444C-41.3547 0.855023 -43.5411 0.019721 -45.4666 0.778574C-47.3921 1.53743 -48.4208 3.6398 -47.8383 5.62579L-44 4.5ZM-27.7843 26.0679L-24.9853 23.2104L-27.7843 26.0679ZM5.44818 40.7844L5.79976 36.7999L5.44818 40.7844ZM19.79 38.1622L16.9951 35.3007L19.79 38.1622ZM31.4562 26.389L34.1491 29.3468L31.4562 26.389ZM44.0856 15.6326L47.2091 18.1314C48.4758 16.548 48.3573 14.2672 46.9333 12.8236C45.5093 11.38 43.2304 11.2303 41.6298 12.4752L44.0856 15.6326ZM23 50.5L26.9568 49.9138L23 50.5ZM187.023 46.2964L188.572 49.9839C190.419 49.2077 191.407 47.185 190.884 45.2512C190.36 43.3175 188.487 42.0692 186.501 42.3305L187.023 46.2964ZM165.67 51.7013L166.501 55.614L165.67 51.7013ZM90.5361 69.8962L91.8715 73.6667L90.5361 69.8962ZM76.3013 93.5496L72.3021 93.468L76.3013 93.5496ZM88.5561 120.467L87.8685 124.408C89.779 124.741 91.6534 123.656 92.3156 121.833C92.9779 120.01 92.2371 117.975 90.5581 117.004L88.5561 120.467ZM56.1263 118.541L56.4063 122.531L56.1263 118.541ZM48.2597 138.127L52.2591 138.056L48.2597 138.127ZM55.056 180.243L51.2049 181.324L55.056 180.243ZM72.1082 252.351L75.9523 251.245L72.1082 252.351ZM41.4634 176.979L44.7224 174.659L41.4634 176.979ZM18.4522 147.332L21.4246 144.655L18.4522 147.332ZM6.03683 137.378L4.64758 141.129L6.03683 137.378ZM-44.2667 149.365L-47.8042 147.498C-48.562 148.934 -48.3768 150.685 -47.3354 151.931C-46.294 153.176 -44.6031 153.669 -43.0557 153.177L-44.2667 149.365ZM-28.5335 131.384L-31.4572 128.654L-28.5335 131.384ZM-27.3562 112.868L-27.8822 116.834L-27.3562 112.868ZM-68.5623 114.795L-67.9996 118.755L-68.5623 114.795ZM-127 119.076L-128.091 115.228C-130.067 115.788 -131.298 117.753 -130.938 119.776C-130.579 121.798 -128.746 123.219 -126.698 123.065L-127 119.076ZM-87.8274 109.015L-88.8799 105.156L-87.8274 109.015ZM-65.6725 99.3827L-63.013 102.37L-65.6725 99.3827ZM-57.8594 81.7229L-61.536 83.2986L-57.8594 81.7229ZM-40.7348 78.9401L-40.8637 82.9381L-40.7993 82.9401H-40.7348V78.9401ZM-27.7463 73.2855C-27.6389 69.8487 -28.2055 64.413 -29.0795 58.2882C-29.967 52.0685 -31.2165 44.8464 -32.5749 37.6865C-35.2811 23.4222 -38.4701 9.14154 -40.1617 3.37421L-47.8383 5.62579C-46.2646 10.9911 -43.1352 24.9434 -40.4347 39.1777C-39.0897 46.267 -37.8637 53.3605 -36.9992 59.4184C-36.1212 65.5713 -35.6592 70.3753 -35.7424 73.0357L-27.7463 73.2855ZM-47.5743 6.29556C-44.0921 13.2275 -38.0827 21.5796 -30.5833 28.9255L-24.9853 23.2104C-31.9173 16.4204 -37.3774 8.77252 -40.4257 2.70444L-47.5743 6.29556ZM-30.5833 28.9255C-20.1897 39.1061 -8.49307 43.5698 5.0966 44.7689L5.79976 36.7999C-6.25687 35.736 -16.1201 31.8939 -24.9853 23.2104L-30.5833 28.9255ZM5.0966 44.7689C9.57591 45.1641 16.9894 46.4891 22.585 41.0237L16.9951 35.3007C14.5835 37.6561 11.6614 37.3171 5.79976 36.7999L5.0966 44.7689ZM22.585 41.0237C24.6284 39.0278 26.582 36.9514 28.4544 34.9962C30.3527 33.0138 32.1987 31.1224 34.1491 29.3468L28.7633 23.4312C26.5969 25.4036 24.5912 27.4635 22.6764 29.463C20.7356 31.4897 18.9146 33.4258 16.9951 35.3007L22.585 41.0237ZM34.1491 29.3468C38.1948 25.6634 42.2923 22.0948 46.5414 18.79L41.6298 12.4752C37.1537 15.9566 32.8873 19.6766 28.7633 23.4312L34.1491 29.3468ZM40.9621 13.1338C40.9736 13.1194 40.9548 13.1435 40.884 13.2219C40.8183 13.2946 40.7295 13.3901 40.6129 13.5128C40.378 13.7601 40.0741 14.0717 39.6944 14.4589C38.9464 15.2216 37.9479 16.2329 36.8148 17.4172C34.5475 19.787 31.685 22.9068 28.9306 26.4138C26.1899 29.9032 23.469 33.8851 21.5558 37.9865C19.6664 42.037 18.3784 46.5991 19.0432 51.0862L26.9568 49.9138C26.6191 47.6341 27.2274 44.7522 28.8058 41.3684C30.3604 38.0357 32.6788 34.5932 35.222 31.3552C37.7513 28.1349 40.4171 25.2242 42.5952 22.9477C43.685 21.8088 44.6385 20.843 45.406 20.0604C46.0841 19.369 46.8109 18.6291 47.2091 18.1314L40.9621 13.1338ZM19.0432 51.0862C19.5948 54.8094 21.8413 57.4233 24.4849 59.1502C27.0459 60.8232 30.155 61.7998 33.0958 62.4048C38.9864 63.6167 45.452 63.5679 48.5808 63.5679V55.5679C45.3094 55.5679 39.6666 55.5891 34.7079 54.5689C32.224 54.0579 30.2232 53.3431 28.86 52.4526C27.5793 51.616 27.0873 50.7945 26.9568 49.9138L19.0432 51.0862ZM48.5808 63.5679C76.1958 63.5679 160.576 53.8106 187.544 50.2622L186.501 42.3305C159.367 45.9007 75.5608 55.5679 48.5808 55.5679V63.5679ZM185.473 42.6088C183.454 43.4573 179.159 44.5902 174.695 45.6333C170.355 46.6475 166.269 47.4849 164.839 47.7886L166.501 55.614C167.868 55.3236 172.072 54.4617 176.515 53.4235C180.835 52.4141 185.818 51.1417 188.572 49.9839L185.473 42.6088ZM164.839 47.7886C139.621 53.1454 114.051 57.3247 89.2007 66.1257L91.8715 73.6667C116.068 65.097 140.789 61.0758 166.501 55.614L164.839 47.7886ZM89.2007 66.1257C77.1863 70.3808 72.5131 83.1271 72.3021 93.468L80.3004 93.6312C80.4809 84.7884 84.4247 76.3041 91.8715 73.6667L89.2007 66.1257ZM72.3021 93.468C72.1821 99.3483 72.5728 105.166 74.6205 110.433C76.7245 115.845 80.4731 120.415 86.554 123.93L90.5581 117.004C85.992 114.365 83.4967 111.187 82.0768 107.534C80.6005 103.737 80.1873 99.1735 80.3004 93.6312L72.3021 93.468ZM89.2437 116.527C79.8559 114.889 65.5482 113.87 55.8463 114.551L56.4063 122.531C65.3454 121.904 78.9936 122.859 87.8685 124.408L89.2437 116.527ZM55.8463 114.551C52.5042 114.785 49.7538 115.999 47.7459 118.156C45.8241 120.221 44.9211 122.789 44.4761 125.149C44.0297 127.516 43.9846 130.004 44.0338 132.21C44.0587 133.326 44.1097 134.424 44.1562 135.427C44.2036 136.451 44.2454 137.364 44.2603 138.199L52.2591 138.056C52.2418 137.086 52.1938 136.056 52.1476 135.058C52.1005 134.039 52.0542 133.036 52.0318 132.032C51.9865 129.998 52.0471 128.172 52.3376 126.632C52.6294 125.084 53.0943 124.152 53.6021 123.607C54.0238 123.154 54.7647 122.646 56.4063 122.531L55.8463 114.551ZM44.2603 138.199C44.534 153.522 47.1568 166.903 51.2049 181.324L58.9072 179.162C54.9744 165.151 52.5166 152.48 52.2591 138.056L44.2603 138.199ZM51.2049 181.324C54.6667 193.657 59.3432 213.103 62.9485 228.768C64.7489 236.59 66.2753 243.439 67.2423 247.95C67.7289 250.22 68.064 251.852 68.2233 252.718C68.263 252.934 68.2856 253.069 68.2961 253.14C68.3019 253.178 68.2989 253.163 68.2941 253.116C68.2918 253.093 68.2859 253.032 68.2821 252.948C68.2797 252.894 68.2699 252.68 68.298 252.402C68.3111 252.272 68.3468 251.97 68.464 251.601C68.5376 251.37 68.8667 250.344 69.9316 249.575C70.435 249.265 71.5898 248.877 72.2173 248.819C72.7731 248.85 73.7296 249.094 74.1223 249.273C74.8801 249.669 75.302 250.205 75.4167 250.352C75.7083 250.725 75.8595 251.064 75.8791 251.106C75.93 251.216 75.9621 251.3 75.9736 251.331C76.0081 251.422 76.0058 251.431 75.9523 251.245L68.2641 253.457C68.3185 253.646 68.3976 253.913 68.4883 254.154C68.5139 254.222 68.5585 254.336 68.6203 254.469C68.6507 254.535 68.8113 254.891 69.1107 255.274C69.2292 255.426 69.6546 255.965 70.4156 256.363C70.8098 256.542 71.7678 256.787 72.3249 256.818C72.9538 256.76 74.1099 256.371 74.6145 256.061C75.6818 255.29 76.0128 254.261 76.088 254.025C76.2068 253.651 76.2438 253.342 76.2577 253.204C76.3049 252.735 76.2554 252.33 76.2536 252.311C76.2402 252.179 76.2227 252.054 76.2082 251.957C76.1782 251.756 76.1372 251.52 76.0914 251.271C75.9085 250.277 75.5505 248.54 75.0646 246.273C74.0866 241.711 72.5508 234.82 70.7447 226.974C67.1373 211.3 62.4247 191.693 58.9072 179.162L51.2049 181.324ZM75.9523 251.245C67.8623 223.122 62.1162 199.102 44.7224 174.659L38.2043 179.298C54.6378 202.391 60.0505 224.904 68.2641 253.457L75.9523 251.245ZM44.7224 174.659C37.4908 164.497 29.9501 154.122 21.4246 144.655L15.4798 150.008C23.6667 159.1 30.9738 169.137 38.2043 179.298L44.7224 174.659ZM21.4246 144.655C18.1056 140.969 13.4411 135.855 7.42609 133.627L4.64758 141.129C8.52608 142.565 11.9521 146.091 15.4798 150.008L21.4246 144.655ZM7.42609 133.627C5.71738 132.994 3.67146 132.943 1.85773 133.038C-0.0804977 133.14 -2.30531 133.448 -4.65654 133.879C-9.36727 134.742 -14.9336 136.162 -20.3897 137.707C-31.2906 140.794 -42.2079 144.514 -45.4777 145.553L-43.0557 153.177C-39.5545 152.065 -28.9522 148.446 -18.2101 145.405C-12.8447 143.885 -7.55881 142.544 -3.21457 141.748C-1.03833 141.349 0.815018 141.104 2.27708 141.027C3.00537 140.989 3.58134 140.995 4.01703 141.032C4.47305 141.07 4.65134 141.13 4.64758 141.129L7.42609 133.627ZM-40.7292 151.232C-39.1945 148.324 -36.8661 145.538 -34.1102 142.671C-32.7396 141.246 -31.3181 139.855 -29.8663 138.427C-28.4333 137.018 -26.9704 135.571 -25.6098 134.114L-31.4572 128.654C-32.6866 129.971 -34.0357 131.307 -35.4762 132.724C-36.8979 134.122 -38.4114 135.602 -39.8769 137.127C-42.7931 140.16 -45.7413 143.589 -47.8042 147.498L-40.7292 151.232ZM-25.6098 134.114C-23.3929 131.74 -19.6034 127.179 -18.4729 121.652L-26.3106 120.049C-26.9711 123.278 -29.4114 126.463 -31.4572 128.654L-25.6098 134.114ZM-18.4729 121.652C-18.244 120.533 -18.014 119.278 -17.9567 118.055C-17.899 116.825 -17.9974 115.336 -18.6587 113.87C-20.144 110.576 -23.4395 109.353 -26.8302 108.903L-27.8822 116.834C-26.6563 116.996 -26.0775 117.225 -25.8547 117.346C-25.7182 117.421 -25.8578 117.366 -25.9514 117.158C-26.004 117.042 -25.922 117.127 -25.9479 117.68C-25.9742 118.241 -26.0919 118.98 -26.3106 120.049L-18.4729 121.652ZM-26.8302 108.903C-40.7407 107.058 -55.9671 108.965 -69.1249 110.835L-67.9996 118.755C-54.7515 116.873 -40.5568 115.152 -27.8822 116.834L-26.8302 108.903ZM-69.1249 110.835C-83.8415 112.925 -111.974 113.928 -127.302 115.087L-126.698 123.065C-112.062 121.958 -83.0292 120.89 -67.9996 118.755L-69.1249 110.835ZM-125.909 122.924C-119.497 121.107 -113.017 119.493 -106.469 117.881C-99.9418 116.273 -93.3368 114.664 -86.775 112.874L-88.8799 105.156C-95.3244 106.914 -101.819 108.496 -108.383 110.113C-114.926 111.725 -121.53 113.368 -128.091 115.228L-125.909 122.924ZM-86.775 112.874C-79.3176 110.84 -70.005 108.594 -63.013 102.37L-68.332 96.3948C-73.6342 101.114 -80.8613 102.969 -88.8799 105.156L-86.775 112.874ZM-63.013 102.37C-60.5863 100.21 -57.5521 97.103 -55.5026 93.4642C-53.4495 89.8191 -52.0817 85.0497 -54.1828 80.1472L-61.536 83.2986C-60.8066 85.0003 -61.0564 87.0233 -62.473 89.5382C-63.8931 92.0596 -66.1806 94.4799 -68.332 96.3948L-63.013 102.37ZM-54.1828 80.1472C-55.19 77.797 -57.0768 74.8059 -59.0466 71.9355C-61.0662 68.9925 -63.3583 65.9132 -65.3371 63.3156C-66.329 62.0135 -67.2481 60.8248 -68.0198 59.8289C-68.8003 58.8218 -69.4101 58.0377 -69.8115 57.5092C-70.0208 57.2337 -70.1283 57.0867 -70.1669 57.031C-70.2243 56.9483 -70.1056 57.1072 -69.9806 57.3535C-69.9437 57.4262 -69.851 57.613 -69.7651 57.8676C-69.7488 57.916 -69.402 58.8208 -69.6437 59.9632C-69.7999 60.7017 -70.254 61.7411 -71.3411 62.4638C-72.3603 63.1414 -73.3792 63.1653 -73.9215 63.115C-74.8565 63.0284 -75.5026 62.6236 -75.5676 62.5854C-75.9038 62.3879 -76.1281 62.184 -76.1307 62.1817C-76.1625 62.154 -76.1857 62.1326 -76.198 62.121C-76.2111 62.1088 -76.2192 62.1009 -76.2214 62.0988C-76.2219 62.0983 -76.1897 62.1301 -76.1093 62.2151C-75.954 62.379 -75.7115 62.6429 -75.3602 63.0319L-69.4234 57.6696C-69.7845 57.2697 -70.078 56.9493 -70.3 56.7148C-70.4082 56.6005 -70.525 56.4796 -70.6369 56.3705C-70.6915 56.3172 -70.7721 56.2402 -70.8669 56.1574C-70.9068 56.1226 -71.1592 55.8969 -71.5147 55.688C-71.5894 55.6441 -72.2429 55.2363 -73.1832 55.1492C-73.7282 55.0987 -74.7491 55.123 -75.77 55.8016C-76.8586 56.5253 -77.3137 57.5664 -77.4704 58.3073C-77.7131 59.4543 -77.3651 60.3662 -77.3456 60.4243C-77.2564 60.6885 -77.1584 60.8875 -77.114 60.9749C-76.9593 61.2797 -76.7778 61.5366 -76.7415 61.589C-76.5927 61.8036 -76.3893 62.0754 -76.1818 62.3485C-75.7498 62.9173 -75.1024 63.7497 -74.3433 64.7293C-73.5755 65.7201 -72.6725 66.8881 -71.701 68.1634C-69.7529 70.7207 -67.5526 73.6792 -65.6428 76.4621C-63.6832 79.3177 -62.2035 81.7409 -61.536 83.2986L-54.1828 80.1472ZM-75.3602 63.0319C-72.3876 66.3229 -67.5845 71.1035 -61.7105 75.1452C-55.8851 79.1535 -48.643 82.6871 -40.8637 82.9381L-40.6058 74.9422C-46.2057 74.7616 -51.9423 72.1557 -57.1757 68.5547C-62.3605 64.9872 -66.6963 60.6888 -69.4234 57.6696L-75.3602 63.0319ZM-40.7348 82.9401C-40.0846 82.9401 -37.4143 82.9891 -34.7141 82.0126C-31.8307 80.9698 -28.5303 78.5755 -27.7909 73.7688L-35.6978 72.5524C-35.8013 73.2248 -36.03 73.5633 -36.2337 73.7766C-36.4759 74.0302 -36.859 74.2812 -37.4349 74.4895C-38.6685 74.9356 -40.042 74.9401 -40.7348 74.9401V82.9401Z" fill="url(#paint0_linear_1600_54)"/>
<defs>
<linearGradient id="paint0_linear_1600_54" x1="58.0918" y1="275.935" x2="172.174" y2="59.1563" gradientUnits="userSpaceOnUse">
<stop stop-color="#AB814E"/>
<stop offset="1" stop-color="#FFE1B9"/>
</linearGradient>
</defs>
</svg>
