<svg width="574" height="873" viewBox="0 0 574 873" fill="none" xmlns="http://www.w3.org/2000/svg">
<path d="M161.8 223.406C83.5892 215.325 40.4917 259.981 28.7193 283.319C352.271 322.523 503.784 281.712 539.096 256.406C521.183 220.19 480.731 212.602 462.744 213.335C397.844 162.644 353.011 183.968 338.707 200.966C258.275 146.074 187.255 193.054 161.8 223.406Z" fill="url(#paint0_linear_150_1389)"/>
<path fill-rule="evenodd" clip-rule="evenodd" d="M549.15 263.721C549.15 263.718 549.15 263.716 540.975 263.606L549.15 263.716L549.303 252.428L538.53 255.804C351.614 314.377 119.574 291.621 26.9909 272.847L16.5008 270.72L17.2081 281.4L25.3653 280.86C17.2081 281.4 17.2082 281.402 17.2084 281.405L17.2264 281.674C17.2384 281.853 17.2564 282.119 17.2803 282.47C17.3281 283.172 17.3997 284.213 17.4951 285.572C17.6859 288.291 17.9719 292.286 18.3532 297.398C19.1158 307.622 20.2601 322.317 21.7877 340.217C24.8425 376.012 29.4325 424.653 35.5724 476.008C41.7095 527.34 49.4088 581.499 58.6948 628.293C67.9089 674.723 78.8882 715.041 91.9936 737.876C106.043 762.355 136.759 778.321 172.969 787.868C209.614 797.531 253.842 801.144 297.645 799.374C341.455 797.604 385.317 790.431 421.242 778.203C456.699 766.135 486.316 748.501 498.913 724.464C510.717 701.938 519.46 661.472 526.141 614.78C532.88 567.675 537.676 512.948 541.079 461C544.483 409.027 546.501 359.717 547.667 323.407C548.25 305.249 548.621 290.336 548.846 279.958C548.958 274.769 549.034 270.713 549.082 267.953C549.106 266.572 549.123 265.516 549.134 264.803L549.143 264.161L549.146 263.994L549.15 263.721Z" fill="url(#paint1_linear_150_1389)"/>
<path fill-rule="evenodd" clip-rule="evenodd" d="M247.887 462.051C247.236 442.572 228.415 427.393 205.851 428.148C183.286 428.904 165.523 445.306 166.174 464.786L168.322 528.977C168.974 548.456 187.795 563.635 210.359 562.879C232.924 562.124 250.687 545.721 250.035 526.242L248.873 491.514L208.282 500.804L247.958 464.167L247.887 462.051Z" fill="black"/>
<path fill-rule="evenodd" clip-rule="evenodd" d="M415.398 456.446C414.746 436.967 395.926 421.788 373.361 422.543C350.797 423.298 333.033 439.701 333.685 459.18L335.833 523.371C336.485 542.85 355.305 558.029 377.87 557.274C400.434 556.519 418.198 540.116 417.546 520.637L416.384 485.909L375.793 495.199L415.469 458.562L415.398 456.446Z" fill="black"/>
<path fill-rule="evenodd" clip-rule="evenodd" d="M126.634 135.828C85.8023 181.356 50.4686 234.459 24.2955 282.587C22.1382 286.554 17.1738 288.021 13.207 285.864C9.2402 283.706 7.77327 278.742 9.93049 274.775C36.5858 225.76 72.6215 171.562 114.461 124.91C156.212 78.3568 204.25 38.747 255.025 19.7593C306.249 0.603791 360.182 2.52682 412.118 38.9683C463.53 75.0422 512.161 144.367 555.079 258.047C556.674 262.272 554.542 266.989 550.318 268.584C546.093 270.179 541.376 268.047 539.781 263.823C497.36 151.458 450.24 85.6931 402.726 52.3537C355.735 19.382 307.567 17.5686 260.753 35.0751C213.49 52.7493 167.555 90.2001 126.634 135.828Z" fill="#49665C"/>
<path fill-rule="evenodd" clip-rule="evenodd" d="M59.7973 461.577C62.5161 466.384 60.8231 472.485 56.0159 475.204C41.4483 483.443 34.1233 490.522 30.8199 495.733C27.7751 500.536 28.3197 503.325 29.0061 504.896C29.9389 507.031 32.2817 509.332 35.7586 510.882C39.4121 512.511 42.2417 512.408 43.0526 512.149C48.314 510.47 53.9404 513.374 55.6196 518.636C57.2987 523.897 54.3948 529.523 49.1334 531.203C42.1109 533.444 34.0238 532.006 27.6147 529.149C21.0291 526.213 14.1635 520.877 10.6796 512.905C6.94927 504.369 7.8689 494.583 13.9282 485.025C19.729 475.874 30.2375 466.806 46.1701 457.795C50.9773 455.077 57.0784 456.77 59.7973 461.577Z" fill="#49665C"/>
<path fill-rule="evenodd" clip-rule="evenodd" d="M523.358 501.502C526.492 496.954 532.719 495.808 537.267 498.942C537.391 499.027 537.599 499.159 537.874 499.334C539.246 500.205 542.289 502.137 544.916 504.642C548.429 507.993 551.701 512.568 554.375 519.239C559.552 532.157 562.601 553.254 561.084 589.913C560.856 595.432 556.197 599.72 550.679 599.491C545.161 599.263 540.873 594.605 541.101 589.087C542.584 553.246 539.383 535.593 535.811 526.68C534.109 522.435 532.381 520.325 531.113 519.116C530.041 518.093 529.323 517.634 528.17 516.897C527.573 516.515 526.859 516.058 525.918 515.41C521.371 512.277 520.225 506.05 523.358 501.502Z" fill="#49665C"/>
<path fill-rule="evenodd" clip-rule="evenodd" d="M228.659 795.129C228.804 789.609 224.447 785.015 218.926 784.869C213.405 784.724 208.811 789.081 208.665 794.602C208.539 799.39 208.61 806.112 208.686 813.241L208.686 813.243C208.731 817.488 208.777 821.878 208.784 826.09C208.795 832.592 208.711 838.594 208.463 843.542C205.819 843.098 202.996 842.885 200.066 842.944C185.445 843.237 173.727 850.19 173.893 858.472C174.06 866.755 186.047 873.231 200.669 872.938C214.679 872.656 226.023 866.262 226.801 858.441C226.885 858.161 226.958 857.875 227.019 857.584C228.589 850.037 228.804 837.484 228.784 826.056C228.776 821.322 228.726 816.695 228.679 812.376L228.679 812.376C228.606 805.61 228.541 799.601 228.659 795.129Z" fill="#49665C"/>
<path fill-rule="evenodd" clip-rule="evenodd" d="M382.807 791.393C383.024 785.875 378.726 781.225 373.208 781.008C367.689 780.791 363.04 785.089 362.823 790.607C362.373 802.03 362.607 830.415 367.425 852.455C367.55 853.026 367.721 853.574 367.933 854.097C369.239 861.504 379.929 867.824 393.293 868.673C407.887 869.599 420.144 863.648 420.669 855.381C421.194 847.113 409.788 839.66 395.193 838.733C391.73 838.513 388.398 838.681 385.323 839.175C382.608 821.16 382.446 800.585 382.807 791.393Z" fill="#49665C"/>
<path fill-rule="evenodd" clip-rule="evenodd" d="M173.56 378.891C155.336 384.53 139.808 395.258 131.536 406.075C128.181 410.462 121.905 411.299 117.518 407.944C113.131 404.589 112.294 398.313 115.649 393.926C126.877 379.243 146.199 366.421 167.649 359.785C189.201 353.117 214.263 352.291 236.601 363.575C241.531 366.065 243.508 372.08 241.018 377.009C238.528 381.939 232.513 383.916 227.583 381.426C211.121 373.11 191.684 373.284 173.56 378.891Z" fill="#49665C"/>
<path fill-rule="evenodd" clip-rule="evenodd" d="M430.635 395.848C402.252 365.927 363.651 372.682 347.803 380.039C342.793 382.365 336.847 380.189 334.522 375.18C332.196 370.17 334.372 364.224 339.381 361.899C359.278 352.663 408.438 343.387 445.145 382.084C448.946 386.091 448.779 392.42 444.772 396.221C440.765 400.022 434.436 399.855 430.635 395.848Z" fill="#49665C"/>
<path d="M366.593 665.66C366.593 702.299 335.7 732 297.593 732C259.485 732 228.593 702.299 228.593 665.66C228.593 629.021 259.485 608 297.593 608C335.7 608 366.593 629.021 366.593 665.66Z" fill="black"/>
<defs>
<linearGradient id="paint0_linear_150_1389" x1="280.732" y1="174.966" x2="284.916" y2="299.987" gradientUnits="userSpaceOnUse">
<stop stop-color="#FFE1B9"/>
<stop offset="1" stop-color="#AB814E"/>
<stop offset="1" stop-color="#FFE1B9" stop-opacity="0"/>
</linearGradient>
<linearGradient id="paint1_linear_150_1389" x1="33.0928" y1="301.676" x2="500.593" y2="794.676" gradientUnits="userSpaceOnUse">
<stop stop-color="#BBD5AC"/>
<stop offset="1" stop-color="#4C673C"/>
</linearGradient>
</defs>
</svg>
