<svg width="654" height="871" viewBox="0 0 654 871" fill="none" xmlns="http://www.w3.org/2000/svg">
<path d="M197.425 223.406C119.215 215.325 76.1172 259.981 64.3448 283.319C387.897 322.523 539.41 281.712 574.722 256.406C556.809 220.19 516.356 212.602 498.37 213.335C433.47 162.644 388.636 183.968 374.332 200.966C293.9 146.074 222.881 193.054 197.425 223.406Z" fill="url(#paint0_linear_150_1315)"/>
<path fill-rule="evenodd" clip-rule="evenodd" d="M584.775 263.721C584.775 263.718 584.775 263.716 576.6 263.606L584.775 263.716L584.928 252.428L574.155 255.804C387.239 314.377 155.199 291.621 62.6164 272.847L52.1263 270.72L52.8336 281.4L60.9908 280.86C52.8336 281.4 52.8337 281.402 52.8339 281.405L52.8519 281.674C52.8639 281.853 52.8819 282.119 52.9058 282.47C52.9536 283.172 53.0252 284.213 53.1206 285.572C53.3114 288.291 53.5973 292.286 53.9787 297.398C54.7413 307.622 55.8856 322.317 57.4132 340.217C60.468 376.012 65.0579 424.653 71.1978 476.008C77.335 527.34 85.0343 581.499 94.3203 628.293C103.534 674.723 114.514 715.041 127.619 737.876C141.668 762.355 172.384 778.321 208.595 787.868C245.24 797.531 289.467 801.144 333.27 799.374C377.08 797.604 420.943 790.431 456.867 778.203C492.325 766.135 521.941 748.501 534.538 724.464C546.343 701.938 555.086 661.472 561.766 614.78C568.505 567.675 573.302 512.948 576.705 461C580.109 409.027 582.126 359.717 583.292 323.407C583.876 305.249 584.246 290.336 584.471 279.958C584.583 274.769 584.659 270.713 584.707 267.953C584.731 266.572 584.748 265.516 584.759 264.803L584.769 264.161L584.771 263.994L584.775 263.721Z" fill="url(#paint1_linear_150_1315)"/>
<path fill-rule="evenodd" clip-rule="evenodd" d="M283.513 462.051C282.861 442.572 264.041 427.393 241.476 428.148C218.912 428.904 201.148 445.306 201.8 464.786L203.948 528.977C204.6 548.456 223.42 563.635 245.985 562.879C268.549 562.124 286.313 545.721 285.661 526.242L284.499 491.514L243.907 500.804L283.584 464.167L283.513 462.051Z" fill="black"/>
<path fill-rule="evenodd" clip-rule="evenodd" d="M451.024 456.446C450.372 436.967 431.551 421.788 408.987 422.543C386.422 423.298 368.659 439.701 369.311 459.18L371.459 523.371C372.111 542.85 390.931 558.029 413.495 557.274C436.06 556.519 453.823 540.116 453.172 520.637L452.01 485.909L411.418 495.199L451.094 458.562L451.024 456.446Z" fill="black"/>
<path fill-rule="evenodd" clip-rule="evenodd" d="M162.26 135.828C121.428 181.356 86.0941 234.459 59.9209 282.587C57.7637 286.554 52.7992 288.021 48.8325 285.864C44.8657 283.706 43.3988 278.742 45.556 274.775C72.2113 225.76 108.247 171.562 150.087 124.91C191.837 78.3568 239.876 38.747 290.651 19.7593C341.874 0.603791 395.807 2.52682 447.743 38.9683C499.155 75.0422 547.787 144.367 590.704 258.047C592.299 262.272 590.167 266.989 585.943 268.584C581.719 270.179 577.001 268.047 575.406 263.823C532.986 151.458 485.866 85.6931 438.351 52.3537C391.361 19.382 343.192 17.5686 296.378 35.0751C249.116 52.7493 203.18 90.2001 162.26 135.828Z" fill="#49665C"/>
<path d="M409.616 619.176L256.616 632.47L277.671 664.632C348.135 757.601 392.07 673.065 409.616 619.176Z" fill="black"/>
<path fill-rule="evenodd" clip-rule="evenodd" d="M423.802 607.906L419.125 622.272C414.614 636.127 408.353 652.129 400.279 666.886C392.277 681.513 382.095 695.658 369.432 705.017C356.402 714.647 340.534 719.285 322.664 713.904C305.447 708.719 287.891 694.67 269.702 670.672L269.493 670.397L239.089 623.955L423.802 607.906ZM274.143 640.984L285.847 658.863C302.799 681.16 317.089 691.338 328.43 694.753C339.165 697.985 348.589 695.552 357.544 688.933C366.866 682.044 375.361 670.761 382.734 657.287C387.449 648.669 391.542 639.455 394.998 630.484L274.143 640.984Z" fill="black"/>
<path fill-rule="evenodd" clip-rule="evenodd" d="M247.4 362.845C210.831 350.425 183.736 372.795 174.821 385.592C171.665 390.124 165.432 391.238 160.9 388.081C156.368 384.924 155.254 378.691 158.411 374.16C170.163 357.29 205.601 327.527 253.832 343.907C259.061 345.683 261.861 351.362 260.085 356.592C258.309 361.821 252.63 364.621 247.4 362.845Z" fill="#49665C"/>
<path fill-rule="evenodd" clip-rule="evenodd" d="M475.329 385.125C446.65 358.623 410.25 357.523 396.459 360.109C391.031 361.127 385.805 357.551 384.787 352.123C383.77 346.695 387.345 341.469 392.773 340.452C410.982 337.037 454.382 338.537 488.903 370.436C492.959 374.184 493.209 380.511 489.461 384.567C485.712 388.623 479.386 388.873 475.329 385.125Z" fill="#49665C"/>
<path fill-rule="evenodd" clip-rule="evenodd" d="M91.2447 518.636C92.9238 523.898 90.0199 529.524 84.7585 531.203C83.9212 531.47 83.0535 531.743 82.1569 532.025C66.5079 536.942 42.0851 544.617 17.9473 574.021C14.4431 578.29 8.1419 578.91 3.87313 575.406C-0.395634 571.902 -1.01543 565.6 2.48878 561.332C30.4196 527.307 59.5605 518.157 76.0535 512.978C76.9679 512.691 77.8434 512.416 78.6777 512.15C83.9391 510.471 89.5655 513.375 91.2447 518.636Z" fill="#49665C"/>
<path fill-rule="evenodd" clip-rule="evenodd" d="M557.555 504.604C558.976 499.267 564.454 496.092 569.791 497.513C571.399 497.941 573.396 498.383 575.728 498.899C591.014 502.282 620.745 508.861 650.433 535.766C654.526 539.475 654.837 545.799 651.128 549.891C647.419 553.984 641.095 554.295 637.003 550.586C611.519 527.491 587.016 521.966 571.618 518.495C569.022 517.91 566.685 517.383 564.646 516.84C559.309 515.419 556.134 509.941 557.555 504.604Z" fill="#49665C"/>
<path fill-rule="evenodd" clip-rule="evenodd" d="M275.704 801.828C277.297 796.539 274.301 790.961 269.013 789.368C263.725 787.776 258.147 790.771 256.554 796.059C255.173 800.645 253.473 807.149 251.67 814.047L251.67 814.048C250.596 818.156 249.486 822.404 248.385 826.47C246.686 832.746 245.025 838.514 243.484 843.223C241.051 842.098 238.383 841.15 235.542 840.437C221.358 836.874 208.224 840.499 206.205 848.533C204.187 856.568 214.049 865.97 228.233 869.533C241.825 872.947 254.454 869.76 257.259 862.417C257.413 862.17 257.558 861.915 257.693 861.651C261.193 854.783 264.702 842.728 267.69 831.698C268.927 827.129 270.096 822.651 271.187 818.472L271.187 818.472C272.896 811.925 274.414 806.111 275.704 801.828Z" fill="#49665C"/>
<path fill-rule="evenodd" clip-rule="evenodd" d="M420.684 789.516C418.904 784.288 413.223 781.493 407.995 783.273C402.767 785.053 399.972 790.734 401.752 795.962C405.436 806.784 415.852 833.19 428.267 852.028C428.588 852.515 428.945 852.965 429.331 853.377C433.21 859.82 445.458 861.878 458.234 857.869C472.187 853.49 481.488 843.533 479.007 835.629C476.527 827.724 463.205 824.866 449.251 829.245C445.94 830.284 442.891 831.638 440.199 833.203C431.193 817.367 423.649 798.224 420.684 789.516Z" fill="#49665C"/>
<defs>
<linearGradient id="paint0_linear_150_1315" x1="316.358" y1="174.966" x2="320.541" y2="299.987" gradientUnits="userSpaceOnUse">
<stop stop-color="#FFE1B9"/>
<stop offset="1" stop-color="#AB814E"/>
<stop offset="1" stop-color="#FFE1B9" stop-opacity="0"/>
</linearGradient>
<linearGradient id="paint1_linear_150_1315" x1="68.7183" y1="301.676" x2="536.218" y2="794.676" gradientUnits="userSpaceOnUse">
<stop stop-color="#BBD5AC"/>
<stop offset="1" stop-color="#4C673C"/>
</linearGradient>
</defs>
</svg>
