<svg width="606" height="879" viewBox="0 0 606 879" fill="none" xmlns="http://www.w3.org/2000/svg">
<path d="M181.213 223.406C103.002 215.325 59.9048 259.981 48.1324 283.319C371.684 322.523 523.197 281.712 558.51 256.406C540.596 220.19 500.144 212.602 482.157 213.335C417.257 162.644 372.424 183.968 358.12 200.966C277.688 146.074 206.668 193.054 181.213 223.406Z" fill="url(#paint0_linear_150_1408)"/>
<path fill-rule="evenodd" clip-rule="evenodd" d="M568.563 263.721C568.563 263.718 568.563 263.716 560.388 263.606L568.563 263.716L568.716 252.428L557.943 255.804C371.027 314.377 138.987 291.621 46.404 272.847L35.9139 270.72L36.6212 281.4L44.7784 280.86C36.6212 281.4 36.6213 281.402 36.6215 281.405L36.6395 281.674C36.6515 281.853 36.6695 282.119 36.6934 282.47C36.7412 283.172 36.8128 284.213 36.9082 285.572C37.099 288.291 37.3849 292.286 37.7663 297.398C38.5289 307.622 39.6732 322.317 41.2008 340.217C44.2556 376.012 48.8455 424.653 54.9854 476.008C61.1226 527.34 68.8218 581.499 78.1079 628.293C87.322 674.723 98.3012 715.041 111.407 737.876C125.456 762.355 156.172 778.321 192.382 787.868C229.027 797.531 273.255 801.144 317.058 799.374C360.868 797.604 404.73 790.431 440.655 778.203C476.112 766.135 505.729 748.501 518.326 724.464C530.131 701.938 538.874 661.472 545.554 614.78C552.293 567.675 557.089 512.948 560.492 461C563.897 409.027 565.914 359.717 567.08 323.407C567.663 305.249 568.034 290.336 568.259 279.958C568.371 274.769 568.447 270.713 568.495 267.953C568.519 266.572 568.536 265.516 568.547 264.803L568.557 264.161L568.559 263.994L568.563 263.721Z" fill="url(#paint1_linear_150_1408)"/>
<path fill-rule="evenodd" clip-rule="evenodd" d="M267.524 475.875C266.872 456.396 248.052 441.218 225.487 441.973C202.923 442.728 185.159 459.131 185.811 478.61L187.959 542.801C188.611 562.28 207.431 577.459 229.996 576.704C252.56 575.949 270.324 559.546 269.672 540.067L268.51 505.339L227.919 514.629L267.595 477.992L267.524 475.875Z" fill="black"/>
<path fill-rule="evenodd" clip-rule="evenodd" d="M435.035 470.27C434.383 450.791 415.562 435.612 392.998 436.367C370.434 437.122 352.67 453.525 353.322 473.004L355.47 537.195C356.122 556.675 374.942 571.853 397.507 571.098C420.071 570.343 437.835 553.94 437.183 534.461L436.021 499.733L395.429 509.023L435.106 472.386L435.035 470.27Z" fill="black"/>
<path fill-rule="evenodd" clip-rule="evenodd" d="M146.047 135.828C105.215 181.356 69.8817 234.459 43.7085 282.587C41.5513 286.554 36.5868 288.021 32.6201 285.864C28.6533 283.706 27.1864 278.742 29.3436 274.775C55.9989 225.76 92.0346 171.562 133.874 124.91C175.625 78.3568 223.663 38.747 274.438 19.7593C325.662 0.603791 379.595 2.52682 431.531 38.9683C482.943 75.0422 531.574 144.367 574.492 258.047C576.087 262.272 573.955 266.989 569.731 268.584C565.506 270.179 560.789 268.047 559.194 263.823C516.773 151.458 469.653 85.6931 422.139 52.3537C375.148 19.382 326.98 17.5686 280.166 35.0751C232.903 52.7493 186.968 90.2001 146.047 135.828Z" fill="#49665C"/>
<path fill-rule="evenodd" clip-rule="evenodd" d="M70.6165 525.873C75.595 524.026 78.2889 518.57 76.6577 513.459C74.9785 508.198 69.3521 505.294 64.0907 506.973C61.2897 507.867 58.5642 509.8 56.6408 511.276C54.3673 513.021 51.783 515.273 49.0401 517.889C43.5406 523.134 37.0387 530.189 30.623 538.366C18.0072 554.445 4.69368 576.166 1.13814 597.817C-0.672099 608.84 -0.0302763 620.342 5.03388 631.052C10.1355 641.842 19.2514 650.825 32.5818 657.546C58.6661 670.698 102.177 675.868 170.071 669.455C175.57 668.936 179.606 664.058 179.087 658.559C178.568 653.061 173.689 649.025 168.191 649.544C101.085 655.882 62.3875 650.176 41.5864 639.688C31.4741 634.589 25.9779 628.559 23.1147 622.504C20.2141 616.369 19.5382 609.191 20.8738 601.058C23.61 584.396 34.4424 565.898 46.3578 550.712C52.2077 543.256 58.0679 536.916 62.8431 532.362C65.2376 530.079 67.2689 528.331 68.8162 527.143C70.0668 526.184 70.6237 525.887 70.6168 525.873C70.6167 525.873 70.6166 525.873 70.6165 525.873Z" fill="#49665C"/>
<path fill-rule="evenodd" clip-rule="evenodd" d="M541.342 504.604C542.763 499.267 548.241 496.092 553.578 497.513C559.587 499.113 565.221 503.629 569.942 508.619C574.939 513.9 580.003 520.88 584.695 529.155C594.089 545.723 602.394 568.192 605.558 594.297C606.222 599.779 602.316 604.763 596.834 605.427C591.351 606.092 586.368 602.186 585.703 596.703C582.867 573.308 575.43 553.364 567.297 539.02C563.225 531.839 559.08 526.239 555.415 522.365C551.474 518.201 548.994 516.989 548.433 516.84C543.096 515.419 539.921 509.941 541.342 504.604Z" fill="#49665C"/>
<path fill-rule="evenodd" clip-rule="evenodd" d="M233.361 788C238.884 787.962 243.392 792.408 243.43 797.93C243.461 802.404 243.727 808.407 244.026 815.167C244.216 819.481 244.421 824.105 244.587 828.836C244.987 840.256 245.19 852.81 243.872 860.404C242.928 865.846 237.752 869.492 232.31 868.548C226.869 867.604 223.223 862.427 224.167 856.986C225.059 851.846 225.019 841.537 224.599 829.536C224.451 825.326 224.259 820.94 224.072 816.697C223.759 809.574 223.464 802.858 223.431 798.069C223.392 792.547 227.838 788.038 233.361 788Z" fill="#49665C"/>
<path d="M243.69 860.236C244.132 868.508 232.653 875.847 218.049 876.628C203.446 877.408 191.249 871.335 190.807 863.063C190.364 854.79 201.844 847.451 216.448 846.671C231.051 845.89 243.248 851.963 243.69 860.236Z" fill="#49665C"/>
<path d="M437.342 851.75C437.093 860.031 425.041 866.387 410.423 865.947C395.805 865.508 384.157 858.438 384.406 850.158C384.655 841.877 396.707 835.521 411.325 835.961C425.943 836.401 437.591 843.47 437.342 851.75Z" fill="#49665C"/>
<path fill-rule="evenodd" clip-rule="evenodd" d="M387.429 779C392.952 779.033 397.402 783.537 397.369 789.06C397.304 799.843 398.481 826.237 403.415 845.681C404.774 851.034 401.536 856.475 396.183 857.834C390.829 859.192 385.389 855.954 384.03 850.601C378.48 828.733 377.301 800.371 377.369 788.94C377.402 783.418 381.906 778.967 387.429 779Z" fill="#49665C"/>
<path fill-rule="evenodd" clip-rule="evenodd" d="M367.625 378.131C366.436 378.629 365.326 379.092 364.299 379.497C359.162 381.524 353.354 379.001 351.328 373.863C349.302 368.726 351.824 362.918 356.962 360.892C357.632 360.628 358.461 360.276 359.435 359.862C365.849 357.138 378.565 351.737 393.803 351.07C412.07 350.271 433.508 356.125 454.219 377.696C458.044 381.68 457.915 388.01 453.931 391.835C449.948 395.66 443.617 395.532 439.792 391.548C423.128 374.192 407.295 370.499 394.677 371.051C383.373 371.546 374.253 375.359 367.625 378.131Z" fill="#49665C"/>
<path fill-rule="evenodd" clip-rule="evenodd" d="M236.166 396.207C213.259 387.908 191.816 400.342 184.056 407.805C180.075 411.633 173.745 411.509 169.916 407.528C166.088 403.547 166.212 397.217 170.193 393.389C180.77 383.217 209.979 365.447 242.979 377.403C248.172 379.285 250.856 385.019 248.975 390.212C247.093 395.404 241.359 398.089 236.166 396.207Z" fill="#49665C"/>
<path fill-rule="evenodd" clip-rule="evenodd" d="M263.85 660.288C268.109 647.155 282.208 639.96 295.342 644.219C311.446 649.441 324.579 648.768 339.071 644.17C352.232 639.995 366.285 647.279 370.46 660.44C374.636 673.601 367.351 687.654 354.19 691.83C330.857 699.232 306.989 700.559 279.919 691.781C266.785 687.522 259.591 673.422 263.85 660.288Z" fill="black"/>
<path fill-rule="evenodd" clip-rule="evenodd" d="M145.941 631.39C151.464 631.39 155.941 635.867 155.941 641.39V657.559C155.941 663.082 151.464 667.559 145.941 667.559C140.419 667.559 135.941 663.082 135.941 657.559V641.39C135.941 635.867 140.419 631.39 145.941 631.39Z" fill="#49665C"/>
<defs>
<linearGradient id="paint0_linear_150_1408" x1="300.145" y1="174.966" x2="304.329" y2="299.987" gradientUnits="userSpaceOnUse">
<stop stop-color="#FFE1B9"/>
<stop offset="1" stop-color="#AB814E"/>
<stop offset="1" stop-color="#FFE1B9" stop-opacity="0"/>
</linearGradient>
<linearGradient id="paint1_linear_150_1408" x1="52.5059" y1="301.676" x2="520.006" y2="794.676" gradientUnits="userSpaceOnUse">
<stop stop-color="#BBD5AC"/>
<stop offset="1" stop-color="#4C673C"/>
</linearGradient>
</defs>
</svg>
