<svg width="71" height="68" viewBox="0 0 71 68" fill="none" xmlns="http://www.w3.org/2000/svg">
<g id="Sandbox gold">
<path id="Union" fill-rule="evenodd" clip-rule="evenodd" d="M0.0235001 16.6647C-0.188308 14.0472 1.05711 11.553 3.00392 10.89L34.4975 0.164655C34.83 0.0514138 35.1633 -0.00170955 35.4911 0.000205852C35.8245 -0.00374873 36.1638 0.0492128 36.5022 0.164445L67.996 10.8881C69.9431 11.5511 71.1887 14.0458 70.9765 16.6636C71.187 19.2798 69.9418 21.772 67.9958 22.4348L36.5023 33.1601C36.2393 33.2497 35.9758 33.3017 35.7149 33.3185C35.3158 33.3514 34.9062 33.303 34.4979 33.164L3.004 22.4403C1.05685 21.7773 -0.18872 19.2825 0.0235001 16.6647ZM35.7222 45.4806C35.3208 45.5147 34.9087 45.4666 34.4978 45.3267L3.00397 34.6031C0.874653 33.878 -0.415677 30.9624 0.121937 28.0907C0.335205 26.9516 0.804092 25.9905 1.42516 25.2907L35.5487 36.9097L69.5995 25.3135C70.2081 26.0107 70.6673 26.9611 70.8777 28.0849C71.4154 30.9565 70.1251 33.8722 67.9958 34.5973L36.5023 45.3227C36.2418 45.4114 35.9807 45.4633 35.7222 45.4806ZM43.2675 6.95187L43.2542 6.95369C39.6947 4.97754 35.5618 4.3352 31.7215 5.23243C28.7867 6.14689 27.7041 6.97477 26.6921 7.7487C26.4995 7.896 26.3094 8.04135 26.1096 8.18496C25.2945 8.77087 24.7435 9.30057 24.2706 9.75826L24.2201 9.80719C23.777 10.2364 23.3829 10.514 22.8483 10.8832L22.3206 11.1939C22.5283 11.0602 23.1578 10.0583 23.779 9.06948C24.1424 8.49095 24.503 7.91694 24.7747 7.52401C18.9315 7.94781 15.5823 10.8492 12.2172 16.6263L35.5541 24.5928L58.8911 16.6263C53.0441 8.80686 49.681 6.61322 44.9637 6.79761C46.0273 7.75175 46.8383 8.93669 47.8078 10.646L48.1223 11.2004C47.1974 9.56983 45.6603 8.52084 44.4903 7.72243L44.3669 7.63816C43.9773 7.37188 43.6227 7.15127 43.2675 6.95187ZM22.3206 11.1939L22.3145 11.1976L22.3096 11.2003L22.3206 11.1939ZM5.87033 60.1338C6.31046 60.3035 6.80831 60.3884 7.36389 60.3884C7.9339 60.3884 8.42815 60.2899 8.84663 60.093C9.26512 59.8961 9.58259 59.6313 9.79905 59.2986C10.0227 58.9659 10.1346 58.5959 10.1346 58.1885C10.1346 57.7608 10.0227 57.4111 9.79905 57.1395C9.57538 56.868 9.30841 56.6609 8.99815 56.5183C8.69511 56.3757 8.29827 56.2263 7.80763 56.0702C7.31699 55.9208 6.95623 55.7816 6.72534 55.6526C6.49445 55.5236 6.379 55.3437 6.379 55.1128C6.379 54.9024 6.44755 54.7428 6.58464 54.6342C6.72173 54.5187 6.90211 54.461 7.12579 54.461C7.38554 54.461 7.59839 54.5289 7.76434 54.6647C7.93029 54.7937 8.02048 54.9737 8.03491 55.2045H10.0372C10.0011 54.5323 9.7269 54.0095 9.21461 53.6361C8.70233 53.2559 8.0277 53.0658 7.19072 53.0658C6.36818 53.0658 5.70077 53.2559 5.18848 53.6361C4.6762 54.0095 4.42005 54.5289 4.42005 55.1943C4.42005 55.6424 4.53189 56.0057 4.75557 56.284C4.97924 56.5624 5.2462 56.7729 5.55646 56.9155C5.86672 57.0581 6.26717 57.2006 6.75781 57.3432C7.09693 57.4383 7.35668 57.5231 7.53706 57.5978C7.72466 57.6725 7.87979 57.7676 8.00245 57.883C8.13232 57.9984 8.19726 58.1444 8.19726 58.3209C8.19726 58.5314 8.11789 58.6978 7.95915 58.82C7.80042 58.9354 7.58396 58.9931 7.30978 58.9931C7.04281 58.9931 6.82635 58.9252 6.6604 58.7894C6.49445 58.6468 6.39704 58.4431 6.36818 58.1783H4.39841C4.41284 58.6468 4.54993 59.0474 4.80968 59.3801C5.07665 59.7128 5.43019 59.964 5.87033 60.1338ZM14.2282 60.3171L14.6827 59.0542H17.5183L17.9729 60.3171H19.9319L17.1828 53.1676H15.0399L12.2909 60.3171H14.2282ZM16.1005 55.0925L17.0421 57.7099H15.1698L16.1005 55.0925ZM29.0805 60.3171H27.2298L24.1344 55.9072V60.3171H22.2837V53.1676H24.1344L27.2298 57.5978V53.1676H29.0805V60.3171ZM36.8834 53.6157C36.2845 53.317 35.5846 53.1676 34.7837 53.1676H31.9373V60.3171H34.7837C35.5774 60.3171 36.2737 60.1677 36.8725 59.869C37.4786 59.5702 37.944 59.1493 38.2687 58.6061C38.6006 58.0629 38.7665 57.4417 38.7665 56.7423C38.7665 56.0362 38.6006 55.415 38.2687 54.8786C37.944 54.3354 37.4822 53.9145 36.8834 53.6157ZM36.2989 58.27C35.9093 58.6299 35.3645 58.8098 34.6647 58.8098H33.788V54.6545H34.6647C35.3645 54.6545 35.9093 54.8379 36.2989 55.2045C36.6885 55.5711 36.8834 56.0838 36.8834 56.7423C36.8834 57.4009 36.6885 57.9102 36.2989 58.27ZM45.9158 56.6507C46.3559 56.7389 46.7094 56.946 46.9764 57.2719C47.2434 57.591 47.3769 57.9577 47.3769 58.3718C47.3769 58.9693 47.1532 59.4446 46.7058 59.7977C46.2657 60.1439 45.6488 60.3171 44.8551 60.3171H41.316V53.1676H44.7361C45.5081 53.1676 46.1106 53.334 46.5435 53.6667C46.9836 53.9993 47.2037 54.4509 47.2037 55.0212C47.2037 55.4421 47.0846 55.7918 46.8465 56.0702C46.6157 56.3485 46.3054 56.542 45.9158 56.6507ZM43.1667 56.06H44.3789C44.6819 56.06 44.9128 55.9989 45.0716 55.8767C45.2375 55.7477 45.3205 55.561 45.3205 55.3165C45.3205 55.0721 45.2375 54.8854 45.0716 54.7564C44.9128 54.6274 44.6819 54.5629 44.3789 54.5629H43.1667V56.06ZM44.5304 58.9116C44.8407 58.9116 45.0788 58.8471 45.2447 58.7181C45.4179 58.5823 45.5045 58.3888 45.5045 58.1376C45.5045 57.8864 45.4143 57.6895 45.2339 57.5469C45.0608 57.4043 44.819 57.333 44.5088 57.333H43.1667V58.9116H44.5304ZM51.5889 59.9199C52.1878 60.2322 52.8444 60.3884 53.5587 60.3884C54.273 60.3884 54.926 60.2322 55.5177 59.9199C56.1093 59.6076 56.5783 59.173 56.9246 58.6163C57.271 58.0527 57.4441 57.4213 57.4441 56.722C57.4441 56.0226 57.271 55.3946 56.9246 54.8379C56.5855 54.2811 56.1165 53.8466 55.5177 53.5343C54.926 53.2219 54.273 53.0658 53.5587 53.0658C52.8444 53.0658 52.1878 53.2219 51.5889 53.5343C50.9973 53.8466 50.5247 54.2811 50.1711 54.8379C49.8248 55.3946 49.6516 56.0226 49.6516 56.722C49.6516 57.4213 49.8248 58.0527 50.1711 58.6163C50.5247 59.173 50.9973 59.6076 51.5889 59.9199ZM55.009 58.2293C54.6482 58.6095 54.1648 58.7996 53.5587 58.7996C52.9454 58.7996 52.4548 58.6129 52.0868 58.2395C51.726 57.8592 51.5456 57.3534 51.5456 56.722C51.5456 56.0838 51.726 55.5779 52.0868 55.2045C52.4548 54.8311 52.9454 54.6444 53.5587 54.6444C54.1648 54.6444 54.6482 54.8345 55.009 55.2147C55.377 55.5881 55.5609 56.0905 55.5609 56.722C55.5609 57.3466 55.377 57.849 55.009 58.2293ZM64.6428 60.3171L63.0951 58.1274L61.7314 60.3171H59.6318L62.067 56.6812L59.5777 53.1676H61.7314L63.2575 55.3267L64.5995 53.1676H66.6992L64.2857 56.7729L66.7966 60.3171H64.6428ZM23.1619 64.9179C23.0402 64.979 22.9468 65.0592 22.8819 65.1585V64.1617H22.1879V66.9879H22.8819V66.69C22.9495 66.7893 23.0429 66.8695 23.1619 66.9306C23.281 66.9892 23.4203 67.0184 23.58 67.0184C23.7667 67.0184 23.9358 66.9739 24.0873 66.8848C24.2388 66.7931 24.3579 66.6645 24.4444 66.499C24.5337 66.331 24.5784 66.1375 24.5784 65.9185C24.5784 65.6996 24.5337 65.5073 24.4444 65.3418C24.3579 65.1763 24.2388 65.049 24.0873 64.9599C23.9358 64.8708 23.7667 64.8262 23.58 64.8262C23.423 64.8262 23.2837 64.8568 23.1619 64.9179ZM23.7261 65.5366C23.8235 65.6283 23.8722 65.7556 23.8722 65.9185C23.8722 66.0815 23.8235 66.2113 23.7261 66.3081C23.6287 66.4023 23.511 66.4494 23.373 66.4494C23.235 66.4494 23.1173 66.4023 23.0199 66.3081C22.9252 66.2139 22.8778 66.0853 22.8778 65.9223C22.8778 65.7594 22.9252 65.6308 23.0199 65.5366C23.1173 65.4424 23.235 65.3953 23.373 65.3953C23.5137 65.3953 23.6314 65.4424 23.7261 65.5366ZM25.8354 68L27.2559 64.8568H26.505L25.9855 66.1897L25.462 64.8568H24.6868L25.6081 66.9153L25.0886 68H25.8354ZM29.0609 64.3068V66.9879H28.3669V64.3068H29.0609ZM30.2579 65.3724V64.8301H31.3091V64.3068H29.5639V66.9879H31.3091V66.4647H30.2579V65.8765H31.1873V65.3724H30.2579ZM32.4537 64.8301V65.3724H33.3831V65.8765H32.4537V66.4647H33.5049V66.9879H31.7597V64.3068H33.5049V64.8301H32.4537ZM34.6494 65.3724V64.8301H35.7006V64.3068H33.9554V66.9879H35.7006V66.4647H34.6494V65.8765H35.5789V65.3724H34.6494ZM37.7053 64.3068V66.9879H37.0113V64.3068H37.7053ZM40.2578 64.8301V64.3068H38.054V64.8301H38.8089V66.9879H39.5029V64.8301H40.2578ZM42.331 65.613C42.4961 65.6461 42.6287 65.7237 42.7288 65.846C42.8289 65.9656 42.8789 66.1031 42.8789 66.2584C42.8789 66.4825 42.7951 66.6607 42.6273 66.7931C42.4623 66.923 42.2309 66.9879 41.9333 66.9879H40.6061V64.3068H41.8886C42.1782 64.3068 42.4041 64.3692 42.5664 64.494C42.7315 64.6187 42.814 64.788 42.814 65.0019C42.814 65.1598 42.7694 65.2909 42.6801 65.3953C42.5935 65.4997 42.4771 65.5722 42.331 65.613ZM41.3002 65.3915H41.7547C41.8684 65.3915 41.9549 65.3686 42.0145 65.3227C42.0767 65.2744 42.1078 65.2043 42.1078 65.1127C42.1078 65.021 42.0767 64.951 42.0145 64.9026C41.9549 64.8542 41.8684 64.8301 41.7547 64.8301H41.3002V65.3915ZM41.8115 66.4608C41.9279 66.4608 42.0172 66.4366 42.0794 66.3883C42.1443 66.3373 42.1768 66.2648 42.1768 66.1706C42.1768 66.0764 42.143 66.0025 42.0753 65.9491C42.0104 65.8956 41.9198 65.8689 41.8034 65.8689H41.3002V66.4608H41.8115ZM44.6124 66.9191C44.7774 66.9828 44.9641 67.0146 45.1724 67.0146C45.3862 67.0146 45.5715 66.9777 45.7285 66.9039C45.8854 66.83 46.0045 66.7307 46.0856 66.606C46.1695 66.4812 46.2114 66.3424 46.2114 66.1897C46.2114 66.0293 46.1695 65.8981 46.0856 65.7963C46.0017 65.6945 45.9016 65.6168 45.7853 65.5633C45.6716 65.5099 45.5228 65.4538 45.3388 65.3953C45.1549 65.3393 45.0196 65.2871 44.933 65.2387C44.8464 65.1903 44.8031 65.1229 44.8031 65.0363C44.8031 64.9574 44.8288 64.8975 44.8802 64.8568C44.9316 64.8135 44.9993 64.7919 45.0831 64.7919C45.1806 64.7919 45.2604 64.8173 45.3226 64.8682C45.3848 64.9166 45.4187 64.9841 45.4241 65.0707H46.1749C46.1614 64.8186 46.0586 64.6226 45.8665 64.4825C45.6744 64.3399 45.4214 64.2686 45.1075 64.2686C44.799 64.2686 44.5488 64.3399 44.3567 64.4825C44.1646 64.6226 44.0685 64.8173 44.0685 65.0668C44.0685 65.2349 44.1104 65.3711 44.1943 65.4755C44.2782 65.5799 44.3783 65.6588 44.4947 65.7123C44.611 65.7657 44.7612 65.8192 44.9452 65.8727C45.0723 65.9083 45.1697 65.9402 45.2374 65.9682C45.3077 65.9962 45.3659 66.0318 45.4119 66.0751C45.4606 66.1184 45.485 66.1731 45.485 66.2393C45.485 66.3183 45.4552 66.3806 45.3957 66.4265C45.3361 66.4697 45.255 66.4914 45.1521 66.4914C45.052 66.4914 44.9709 66.4659 44.9086 66.415C44.8464 66.3615 44.8099 66.2852 44.799 66.1859H44.0604C44.0658 66.3615 44.1172 66.5118 44.2146 66.6365C44.3147 66.7613 44.4473 66.8555 44.6124 66.9191ZM48.3634 65.613C48.5285 65.6461 48.6611 65.7237 48.7612 65.846C48.8613 65.9656 48.9114 66.1031 48.9114 66.2584C48.9114 66.4825 48.8275 66.6607 48.6597 66.7931C48.4947 66.923 48.2633 66.9879 47.9657 66.9879H46.6385V64.3068H47.9211C48.2106 64.3068 48.4365 64.3692 48.5988 64.494C48.7639 64.6187 48.8464 64.788 48.8464 65.0019C48.8464 65.1598 48.8018 65.2909 48.7125 65.3953C48.6259 65.4997 48.5096 65.5722 48.3634 65.613ZM47.3326 65.3915H47.7871C47.9008 65.3915 47.9874 65.3686 48.0469 65.3227C48.1091 65.2744 48.1402 65.2043 48.1402 65.1127C48.1402 65.021 48.1091 64.951 48.0469 64.9026C47.9874 64.8542 47.9008 64.8301 47.7871 64.8301H47.3326V65.3915ZM47.8439 66.4608C47.9603 66.4608 48.0496 66.4366 48.1118 66.3883C48.1768 66.3373 48.2092 66.2648 48.2092 66.1706C48.2092 66.0764 48.1754 66.0025 48.1078 65.9491C48.0428 65.8956 47.9522 65.8689 47.8358 65.8689H47.3326V66.4608H47.8439Z" fill="url(#paint0_linear_737_2354)"/>
</g>
<defs>
<linearGradient id="paint0_linear_737_2354" x1="76.6406" y1="8.38681" x2="21.6738" y2="44.2788" gradientUnits="userSpaceOnUse">
<stop stop-color="#FFE1B9"/>
<stop offset="0.997468" stop-color="#AB814E"/>
</linearGradient>
</defs>
</svg>
