<svg width="157" height="149" viewBox="0 0 157 149" fill="none" xmlns="http://www.w3.org/2000/svg">
<path fill-rule="evenodd" clip-rule="evenodd" d="M0.0518903 36.5158C-0.416623 30.7804 2.33735 25.3149 6.64237 23.8622L76.283 0.360979C77.0146 0.114087 77.748 -0.00238917 78.4694 0.000588864C79.2102 -0.00935937 79.964 0.106584 80.7161 0.360327L150.357 23.8577C154.663 25.3104 157.417 30.7765 156.948 36.5124C157.414 42.2452 154.66 47.7067 150.357 49.1589L80.7165 72.6601C80.1339 72.8567 79.5502 72.9706 78.9723 73.0073C78.0907 73.0789 77.186 72.9728 76.2839 72.6685L6.64258 49.1711C2.33698 47.7183 -0.417299 42.2519 0.0518903 36.5158ZM78.9693 99.6578C78.0886 99.7289 77.185 99.6227 76.2839 99.3187L6.64258 75.8213C1.93409 74.2326 -0.919173 67.8439 0.269634 61.5517C0.741215 59.0557 1.77801 56.9498 3.1513 55.4164L78.608 80.8759L153.903 55.4665C155.249 56.9943 156.264 59.0769 156.73 61.5392C157.919 67.8314 155.066 74.2202 150.357 75.8092L80.7165 99.3103C80.1329 99.5073 79.5482 99.6212 78.9693 99.6578ZM95.6764 15.2327L95.6466 15.2367C87.7746 10.9061 78.6343 9.49879 70.1415 11.4658C63.6541 13.4692 61.2606 15.283 59.0231 16.9785L59.0229 16.9786L59.0225 16.979C58.5967 17.3016 58.1767 17.6199 57.7351 17.9344C55.9327 19.2183 54.7143 20.3789 53.6686 21.3818L53.5569 21.489C52.5771 22.4295 51.7056 23.0378 50.5235 23.8467L49.3565 24.5276C49.8158 24.2347 51.2077 22.0392 52.5814 19.8726L52.5814 19.8726L52.5815 19.8724C53.3851 18.6049 54.1824 17.3473 54.783 16.4864C41.8623 17.4151 34.4566 23.7725 27.0153 36.4311L78.6196 53.887L130.224 36.4311C117.295 19.2975 109.858 14.4907 99.4268 14.8947C101.779 16.9853 103.572 19.5817 105.716 23.3269L106.411 24.5417C104.366 20.9688 100.967 18.6703 98.3798 16.9208L98.1069 16.7362C97.2457 16.1528 96.4617 15.6695 95.6764 15.2327ZM49.3323 24.5417C49.34 24.5376 49.3481 24.5329 49.3565 24.5276L49.3323 24.5417ZM12.9808 131.764C13.954 132.136 15.0549 132.322 16.2835 132.322C17.5439 132.322 18.6368 132.106 19.5622 131.675C20.4876 131.243 21.1896 130.663 21.6683 129.934C22.1629 129.205 22.4102 128.394 22.4102 127.501C22.4102 126.564 22.1629 125.798 21.6683 125.203C21.1737 124.608 20.5833 124.154 19.8973 123.842C19.2271 123.529 18.3496 123.202 17.2647 122.86C16.1798 122.533 15.382 122.228 14.8715 121.945C14.3609 121.662 14.1056 121.268 14.1056 120.762C14.1056 120.301 14.2572 119.951 14.5603 119.713C14.8635 119.46 15.2623 119.334 15.757 119.334C16.3313 119.334 16.802 119.483 17.169 119.78C17.5359 120.063 17.7354 120.457 17.7673 120.963H22.1948C22.115 119.49 21.5087 118.345 20.3759 117.526C19.2431 116.693 17.7513 116.277 15.9005 116.277C14.0817 116.277 12.6059 116.693 11.4731 117.526C10.3403 118.345 9.77385 119.483 9.77385 120.941C9.77385 121.923 10.0212 122.718 10.5158 123.328C11.0104 123.938 11.6007 124.4 12.2868 124.712C12.9728 125.024 13.8583 125.337 14.9432 125.649C15.6931 125.858 16.2675 126.044 16.6664 126.207C17.0812 126.371 17.4242 126.579 17.6955 126.832C17.9827 127.085 18.1263 127.405 18.1263 127.792C18.1263 128.253 17.9508 128.617 17.5997 128.885C17.2487 129.138 16.7701 129.264 16.1638 129.264C15.5735 129.264 15.0948 129.116 14.7279 128.818C14.3609 128.506 14.1455 128.059 14.0817 127.479H9.72599C9.7579 128.506 10.061 129.383 10.6354 130.112C11.2257 130.841 12.0075 131.392 12.9808 131.764ZM32.4674 129.398H38.7377L39.7428 132.166H44.0746L37.9958 116.5H33.2571L27.1783 132.166H31.4622L32.4674 129.398ZM35.6025 120.717L37.6846 126.453H33.5443L35.6025 120.717ZM64.3048 132.166H60.2123L53.3677 122.503V132.166H49.2752V116.5H53.3677L60.2123 126.207V116.5H64.3048V132.166ZM81.5589 117.482C80.2346 116.827 78.687 116.5 76.916 116.5H70.6218V132.166H76.916C78.6711 132.166 80.2107 131.838 81.535 131.184C82.8752 130.529 83.9043 129.607 84.6222 128.416C85.3562 127.226 85.7231 125.865 85.7231 124.333C85.7231 122.785 85.3562 121.424 84.6222 120.249C83.9043 119.059 82.8832 118.136 81.5589 117.482ZM80.2665 127.68C79.405 128.469 78.2004 128.863 76.6528 128.863H74.7142V119.758H76.6528C78.2004 119.758 79.405 120.16 80.2665 120.963C81.1281 121.766 81.5589 122.89 81.5589 124.333C81.5589 125.776 81.1281 126.892 80.2665 127.68ZM101.532 124.132C102.505 124.325 103.287 124.779 103.877 125.493C104.468 126.192 104.763 126.996 104.763 127.903C104.763 129.212 104.268 130.254 103.279 131.027C102.306 131.786 100.942 132.166 99.1866 132.166H91.3607V116.5H98.9234C100.631 116.5 101.963 116.864 102.92 117.593C103.893 118.322 104.38 119.312 104.38 120.561C104.38 121.484 104.117 122.25 103.59 122.86C103.08 123.47 102.394 123.894 101.532 124.132ZM95.4532 122.837H98.1336C98.8037 122.837 99.3142 122.704 99.6653 122.436C100.032 122.153 100.216 121.744 100.216 121.208C100.216 120.673 100.032 120.264 99.6653 119.981C99.3142 119.698 98.8037 119.557 98.1336 119.557H95.4532V122.837ZM98.4686 129.086C99.1547 129.086 99.6812 128.945 100.048 128.662C100.431 128.364 100.623 127.94 100.623 127.39C100.623 126.839 100.423 126.408 100.024 126.096C99.6413 125.783 99.1068 125.627 98.4208 125.627H95.4532V129.086H98.4686ZM114.077 131.295C115.401 131.98 116.853 132.322 118.433 132.322C120.012 132.322 121.456 131.98 122.764 131.295C124.073 130.611 125.11 129.659 125.876 128.439C126.641 127.204 127.024 125.82 127.024 124.288C127.024 122.756 126.641 121.38 125.876 120.16C125.126 118.94 124.089 117.988 122.764 117.303C121.456 116.619 120.012 116.277 118.433 116.277C116.853 116.277 115.401 116.619 114.077 117.303C112.769 117.988 111.724 118.94 110.942 120.16C110.176 121.38 109.793 122.756 109.793 124.288C109.793 125.82 110.176 127.204 110.942 128.439C111.724 129.659 112.769 130.611 114.077 131.295ZM121.64 127.591C120.842 128.424 119.773 128.84 118.433 128.84C117.076 128.84 115.991 128.431 115.178 127.613C114.38 126.78 113.981 125.672 113.981 124.288C113.981 122.89 114.38 121.781 115.178 120.963C115.991 120.145 117.076 119.736 118.433 119.736C119.773 119.736 120.842 120.152 121.64 120.985C122.453 121.804 122.86 122.904 122.86 124.288C122.86 125.657 122.453 126.758 121.64 127.591ZM142.943 132.166L139.52 127.368L136.505 132.166H131.862L137.247 124.199L131.742 116.5H136.505L139.879 121.231L142.847 116.5H147.49L142.153 124.4L147.705 132.166H142.943ZM51.2171 142.247C50.9479 142.381 50.7415 142.556 50.5979 142.774V140.59H49.0632V146.782H50.5979V146.13C50.7475 146.347 50.9539 146.523 51.2171 146.657C51.4804 146.785 51.7885 146.849 52.1415 146.849C52.5544 146.849 52.9283 146.752 53.2634 146.556C53.5984 146.356 53.8617 146.074 54.0531 145.711C54.2506 145.343 54.3493 144.919 54.3493 144.439C54.3493 143.959 54.2506 143.538 54.0531 143.176C53.8617 142.813 53.5984 142.534 53.2634 142.339C52.9283 142.143 52.5544 142.046 52.1415 142.046C51.7945 142.046 51.4864 142.113 51.2171 142.247ZM52.4646 143.602C52.68 143.803 52.7877 144.082 52.7877 144.439C52.7877 144.796 52.68 145.081 52.4646 145.293C52.2492 145.499 51.989 145.602 51.6838 145.602C51.3787 145.602 51.1184 145.499 50.903 145.293C50.6936 145.086 50.5889 144.805 50.5889 144.448C50.5889 144.09 50.6936 143.809 50.903 143.602C51.1184 143.396 51.3787 143.293 51.6838 143.293C51.995 143.293 52.2552 143.396 52.4646 143.602ZM57.1288 149L60.27 142.113H58.6097L57.4609 145.033L56.3032 142.113H54.589L56.6263 146.623L55.4775 149H57.1288ZM64.2615 140.908V146.782H62.7268V140.908H64.2615ZM66.9083 143.243V142.054H69.2327V140.908H65.3736V146.782H69.2327V145.636H66.9083V144.347H68.9635V143.243H66.9083ZM71.7637 142.054V143.243H73.8189V144.347H71.7637V145.636H74.0881V146.782H70.229V140.908H74.0881V142.054H71.7637ZM76.6191 143.243V142.054H78.9436V140.908H75.0845V146.782H78.9436V145.636H76.6191V144.347H78.6743V143.243H76.6191ZM83.3764 140.908V146.782H81.8417V140.908H83.3764ZM89.0208 142.054V140.908H84.1475V142.054H85.8168V146.782H87.3515V142.054H89.0208ZM93.6052 143.77C93.9702 143.842 94.2633 144.012 94.4847 144.28C94.7061 144.542 94.8168 144.844 94.8168 145.184C94.8168 145.675 94.6313 146.065 94.2603 146.356C93.8954 146.64 93.3838 146.782 92.7257 146.782H89.791V140.908H92.627C93.2672 140.908 93.7667 141.044 94.1257 141.318C94.4907 141.591 94.6732 141.962 94.6732 142.431C94.6732 142.777 94.5745 143.064 94.377 143.293C94.1856 143.521 93.9283 143.68 93.6052 143.77ZM91.3256 143.284H92.3308C92.5821 143.284 92.7735 143.234 92.9052 143.134C93.0428 143.028 93.1116 142.874 93.1116 142.673C93.1116 142.473 93.0428 142.319 92.9052 142.213C92.7735 142.107 92.5821 142.054 92.3308 142.054H91.3256V143.284ZM92.4564 145.628C92.7137 145.628 92.9112 145.575 93.0488 145.469C93.1924 145.357 93.2642 145.198 93.2642 144.992C93.2642 144.785 93.1894 144.623 93.0398 144.506C92.8962 144.389 92.6958 144.33 92.4385 144.33H91.3256V145.628H92.4564ZM98.6498 146.632C99.0148 146.771 99.4276 146.841 99.8883 146.841C100.361 146.841 100.771 146.76 101.118 146.598C101.465 146.436 101.728 146.219 101.908 145.946C102.093 145.672 102.186 145.368 102.186 145.033C102.186 144.682 102.093 144.395 101.908 144.171C101.722 143.948 101.501 143.778 101.243 143.661C100.992 143.544 100.663 143.421 100.256 143.293C99.8494 143.17 99.5502 143.056 99.3588 142.95C99.1673 142.844 99.0716 142.696 99.0716 142.506C99.0716 142.333 99.1284 142.202 99.2421 142.113C99.3558 142.018 99.5054 141.971 99.6908 141.971C99.9062 141.971 100.083 142.026 100.22 142.138C100.358 142.244 100.433 142.392 100.445 142.581H102.105C102.075 142.029 101.848 141.6 101.423 141.293C100.998 140.98 100.439 140.824 99.7447 140.824C99.0626 140.824 98.5092 140.98 98.0844 141.293C97.6596 141.6 97.4472 142.026 97.4472 142.573C97.4472 142.941 97.5399 143.24 97.7254 143.468C97.9109 143.697 98.1322 143.87 98.3895 143.987C98.6468 144.104 98.9789 144.222 99.3857 144.339C99.6669 144.417 99.8823 144.487 100.032 144.548C100.187 144.609 100.316 144.687 100.418 144.782C100.525 144.877 100.579 144.997 100.579 145.142C100.579 145.315 100.514 145.452 100.382 145.552C100.25 145.647 100.071 145.694 99.8434 145.694C99.622 145.694 99.4425 145.639 99.3049 145.527C99.1673 145.41 99.0866 145.243 99.0626 145.025H97.4292C97.4412 145.41 97.5549 145.739 97.7703 146.012C97.9916 146.286 98.2848 146.492 98.6498 146.632ZM106.944 143.77C107.309 143.842 107.603 144.012 107.824 144.28C108.045 144.542 108.156 144.844 108.156 145.184C108.156 145.675 107.971 146.065 107.6 146.356C107.235 146.64 106.723 146.782 106.065 146.782H103.13V140.908H105.966C106.606 140.908 107.106 141.044 107.465 141.318C107.83 141.591 108.012 141.962 108.012 142.431C108.012 142.777 107.914 143.064 107.716 143.293C107.525 143.521 107.268 143.68 106.944 143.77ZM104.665 143.284H105.67C105.921 143.284 106.113 143.234 106.244 143.134C106.382 143.028 106.451 142.874 106.451 142.673C106.451 142.473 106.382 142.319 106.244 142.213C106.113 142.107 105.921 142.054 105.67 142.054H104.665V143.284ZM105.796 145.628C106.053 145.628 106.25 145.575 106.388 145.469C106.532 145.357 106.603 145.198 106.603 144.992C106.603 144.785 106.529 144.623 106.379 144.506C106.235 144.389 106.035 144.33 105.778 144.33H104.665V145.628H105.796Z" fill="url(#paint0_linear_1235_3615)"/>
<defs>
<linearGradient id="paint0_linear_1235_3615" x1="169.473" y1="18.377" x2="48.5923" y2="98.033" gradientUnits="userSpaceOnUse">
<stop stop-color="#FFE1B9"/>
<stop offset="0.997468" stop-color="#AB814E"/>
</linearGradient>
</defs>
</svg>
