<svg width="49" height="49" viewBox="0 0 49 49" fill="none" xmlns="http://www.w3.org/2000/svg">
<path d="M22.8677 1.14527C22.9895 0.809679 23.2117 0.51973 23.504 0.314826C23.7964 0.109921 24.1447 0 24.5017 0C24.8587 0 25.2071 0.109921 25.4995 0.314826C25.7918 0.51973 26.014 0.809679 26.1358 1.14527L27.7976 5.68584C29.0993 9.24631 31.1625 12.4797 33.8431 15.1603C36.5237 17.841 39.7572 19.9041 43.3176 21.2058L47.8547 22.8677C48.1903 22.9895 48.4803 23.2117 48.6852 23.504C48.8901 23.7964 49 24.1447 49 24.5017C49 24.8587 48.8901 25.2071 48.6852 25.4995C48.4803 25.7918 48.1903 26.014 47.8547 26.1358L43.3176 27.7976C39.7572 29.0993 36.5237 31.1625 33.8431 33.8431C31.1625 36.5237 29.0993 39.7572 27.7976 43.3176L26.1358 47.8547C26.014 48.1903 25.7918 48.4803 25.4995 48.6852C25.2071 48.8901 24.8587 49 24.5017 49C24.1447 49 23.7964 48.8901 23.504 48.6852C23.2117 48.4803 22.9895 48.1903 22.8677 47.8547L21.2058 43.3176C19.9041 39.7572 17.841 36.5237 15.1603 33.8431C12.4797 31.1625 9.24631 29.0993 5.68584 27.7976L1.14527 26.1358C0.809679 26.014 0.51973 25.7918 0.314826 25.4995C0.109921 25.2071 0 24.8587 0 24.5017C0 24.1447 0.109921 23.7964 0.314826 23.504C0.51973 23.2117 0.809679 22.9895 1.14527 22.8677L5.68584 21.2058C9.24631 19.9041 12.4797 17.841 15.1603 15.1603C17.841 12.4797 19.9041 9.24631 21.2058 5.68584L22.8677 1.14527Z" fill="url(#paint0_linear_709_817)"/>
<defs>
<linearGradient id="paint0_linear_709_817" x1="28.8817" y1="53.5616" x2="54.0756" y2="15.7049" gradientUnits="userSpaceOnUse">
<stop stop-color="#AB814E"/>
<stop offset="1" stop-color="#FFE1B9"/>
</linearGradient>
</defs>
</svg>
