<svg width="29" height="29" viewBox="0 0 29 29" fill="none" xmlns="http://www.w3.org/2000/svg">
<path d="M1.57473 22.8797C1.50813 22.9258 1.45736 22.9913 1.42932 23.0674C1.40127 23.1434 1.39731 23.2262 1.41797 23.3045C1.43863 23.3829 1.48291 23.4529 1.5448 23.5052C1.60668 23.5575 1.68317 23.5895 1.76386 23.5968L2.85644 23.6987C3.7131 23.7783 4.54206 24.044 5.28544 24.4771C6.02882 24.9102 6.6687 25.5003 7.1604 26.2063L7.78766 27.1058C7.83381 27.1724 7.89934 27.2232 7.97536 27.2512C8.05137 27.2793 8.13418 27.2832 8.21252 27.2626C8.29087 27.2419 8.36095 27.1976 8.41325 27.1357C8.46554 27.0738 8.49752 26.9974 8.50483 26.9167L8.60694 25.8249C8.68654 24.9682 8.95216 24.1392 9.38528 23.3959C9.81839 22.6525 10.4085 22.0126 11.1145 21.5209L12.014 20.8936C12.0806 20.8475 12.1314 20.7819 12.1594 20.7059C12.1875 20.6299 12.1914 20.5471 12.1708 20.4688C12.1501 20.3904 12.1058 20.3203 12.0439 20.268C11.9821 20.2158 11.9056 20.1838 11.8249 20.1765L10.7331 20.0744C9.8764 19.9948 9.04744 19.7291 8.30406 19.296C7.56068 18.8629 6.9208 18.2727 6.4291 17.5667L5.80164 16.6665C5.75549 16.5999 5.68996 16.5492 5.61394 16.5211C5.53793 16.4931 5.45512 16.4891 5.37678 16.5098C5.29844 16.5304 5.22835 16.5747 5.17606 16.6366C5.12376 16.6985 5.09178 16.775 5.08448 16.8557L4.98256 17.9482C4.90297 18.8049 4.63734 19.6339 4.20422 20.3772C3.77111 21.1206 3.18095 21.7605 2.47496 22.2522L1.57473 22.8797Z" fill="url(#paint0_linear_1763_2373)"/>
<path d="M9.4872 12.2998C9.38202 12.3727 9.30183 12.4762 9.25753 12.5963C9.21324 12.7163 9.20698 12.8471 9.23961 12.9709C9.27224 13.0946 9.34218 13.2053 9.43993 13.2879C9.53767 13.3705 9.65848 13.421 9.78593 13.4325L11.5116 13.5935C12.8646 13.7192 14.1739 14.1388 15.3481 14.8228C16.5222 15.5069 17.5329 16.439 18.3095 17.5541L19.3002 18.9748C19.3731 19.08 19.4766 19.1602 19.5967 19.2045C19.7167 19.2488 19.8475 19.255 19.9712 19.2224C20.095 19.1897 20.2057 19.1198 20.2883 19.0221C20.3709 18.9243 20.4214 18.8035 20.4329 18.6761L20.5942 16.9516C20.7199 15.5986 21.1395 14.2893 21.8235 13.1151C22.5076 11.941 23.4398 10.9303 24.5548 10.1537L25.9755 9.163C26.0807 9.09011 26.1609 8.9866 26.2052 8.86654C26.2495 8.74648 26.2557 8.61569 26.2231 8.49195C26.1905 8.36821 26.1205 8.25752 26.0228 8.17492C25.925 8.09232 25.8042 8.04181 25.6768 8.03027L23.9523 7.86899C22.5993 7.74327 21.29 7.32372 20.1158 6.63964C18.9417 5.95557 17.931 5.02344 17.1544 3.90836L16.1634 2.48649C16.0905 2.38131 15.987 2.30112 15.8669 2.25683C15.7469 2.21253 15.6161 2.20627 15.4923 2.2389C15.3686 2.27154 15.2579 2.34148 15.1753 2.43922C15.0927 2.53696 15.0422 2.65777 15.0307 2.78522L14.8697 4.51089C14.744 5.86394 14.3244 7.17324 13.6404 8.34737C12.9563 9.52149 12.0241 10.5322 10.9091 11.3088L9.4872 12.2998Z" fill="url(#paint1_linear_1763_2373)"/>
<defs>
<linearGradient id="paint0_linear_1763_2373" x1="13.4253" y1="21.1659" x2="6.57584" y2="28.8855" gradientUnits="userSpaceOnUse">
<stop stop-color="#AB814E"/>
<stop offset="1" stop-color="#FFE1B9"/>
</linearGradient>
<linearGradient id="paint1_linear_1763_2373" x1="28.2045" y1="9.59309" x2="17.3862" y2="21.7857" gradientUnits="userSpaceOnUse">
<stop stop-color="#AB814E"/>
<stop offset="1" stop-color="#FFE1B9"/>
</linearGradient>
</defs>
</svg>
