<svg width="155" height="278" viewBox="0 0 155 278" fill="none" xmlns="http://www.w3.org/2000/svg">
<path d="M181.721 132.213L178.039 130.86L178.085 130.648L178.151 130.445L181.721 132.213ZM217.837 65.9004L215.14 62.6712C216.52 61.2665 218.747 61.3875 220.259 62.9492C221.771 64.511 222.062 66.9908 220.928 68.6495L217.837 65.9004ZM195.873 81.1079L194.129 77.2022L195.873 81.1079ZM161.848 81.4049L162.827 77.4677L161.848 81.4049ZM150.508 72.1383L154.037 71.0194L150.508 72.1383ZM144.877 54.5077L141.399 55.768L144.877 54.5077ZM138.04 37.5036L134.375 38.1299C133.904 36.0194 134.901 34.0054 136.693 33.4442C138.485 32.8829 140.505 33.9522 141.392 35.9319L138.04 37.5036ZM143.153 83.596L139.82 81.2558L143.153 83.596ZM3.85795 4.61454L1.11742 7.20007C-0.171599 5.55753 -0.274983 3.22631 0.874188 1.71677C2.02339 0.207244 4.07957 -0.0266344 5.71055 1.16667L3.85795 4.61454ZM20.1806 19.9821L18.0426 23.2021L20.1806 19.9821ZM77.9241 73.1948L75.3536 75.9848L77.9241 73.1948ZM81.333 104.432L84.8915 106.236L81.333 104.432ZM60.776 127.041L60.1523 131.103C58.3693 130.578 57.0468 128.752 56.9964 126.745C56.946 124.739 58.1818 123.113 59.9454 122.866L60.776 127.041ZM89.3446 139.77L87.7246 143.376L89.3446 139.77ZM88.8003 163.853L85.2866 161.923L88.8003 163.853ZM67.2665 204.856L70.3799 207.572L67.2665 204.856ZM25.7467 272.597L22.6456 269.863L25.7467 272.597ZM80.1565 207.619L77.8638 204.039L80.1565 207.619ZM110.968 187.043L109.021 183.241L110.968 187.043ZM125.34 182.267L125.484 186.467L125.34 182.267ZM164.073 217.69L167.845 217.811C167.951 219.508 167.132 221.01 165.767 221.618C164.403 222.227 162.761 221.822 161.605 220.593L164.073 217.69ZM157.263 191.711L160.85 190.778L157.263 191.711ZM163.153 171.79L162.357 175.797L163.153 171.79ZM197.823 192.543L195.932 195.963L197.823 192.543ZM246.413 223.597L248.779 220.589C250.279 222.085 250.637 224.491 249.612 226.18C248.586 227.868 246.504 228.303 244.772 227.19L246.413 223.597ZM216.522 195.252L218.855 192.212L216.522 195.252ZM201.085 175.093L197.623 176.399L201.085 175.093ZM200.958 153.052L203.797 156.127L200.958 153.052ZM187.288 142.352L186.078 146.187L186.012 146.155L185.947 146.12L187.288 142.352ZM178.151 130.445C180.405 123.528 187.914 109.135 195.486 95.5548C203.124 81.8546 211.168 68.3846 214.746 63.1512L220.928 68.6495C217.553 73.5868 209.648 86.8028 202.021 100.481C194.328 114.28 187.255 127.957 185.292 133.981L178.151 130.445ZM220.534 69.1295C215.013 74.7497 206.78 80.7398 197.616 85.0137L194.129 77.2022C202.627 73.2383 210.208 67.6921 215.14 62.6712L220.534 69.1295ZM197.616 85.0137C184.92 90.9354 173.133 90.3257 160.868 85.3421L162.827 77.4677C173.431 81.7761 183.255 82.2737 194.129 77.2022L197.616 85.0137ZM160.868 85.3421C156.9 83.7297 149.788 81.6424 146.98 73.2573L154.037 71.0194C155.19 74.4633 157.575 75.3334 162.827 77.4677L160.868 85.3421ZM146.98 73.2573C145.97 70.2431 145.068 67.1865 144.188 64.2854C143.296 61.3451 142.414 58.5197 141.399 55.768L148.356 53.2474C149.48 56.2916 150.432 59.3544 151.331 62.3169C152.242 65.3185 153.086 68.1792 154.037 71.0194L146.98 73.2573ZM141.399 55.768C139.296 50.0696 137.106 44.4683 134.689 39.0753L141.392 35.9319C143.938 41.6111 146.215 47.4437 148.356 53.2474L141.399 55.768ZM141.706 36.8773C141.704 36.8679 141.713 36.9094 141.746 37.0261C141.776 37.1354 141.817 37.2783 141.872 37.4609C141.982 37.8289 142.128 38.2951 142.309 38.8729C142.668 40.0124 143.148 41.5234 143.679 43.2765C144.742 46.7856 146.034 51.3417 147.088 56.248C148.139 61.1357 148.981 66.4934 149.094 71.5835C149.206 76.6263 148.611 81.7731 146.487 85.9363L139.82 81.2558C141.078 78.7902 141.63 75.2811 141.534 70.9638C141.439 66.6938 140.721 61.9871 139.741 57.4289C138.766 52.8894 137.557 48.6182 136.534 45.2414C136.023 43.5515 135.563 42.1049 135.196 40.9375C134.868 39.8955 134.526 38.8095 134.375 38.1299L141.706 36.8773ZM146.487 85.9363C142.96 92.8454 135.61 92.4516 130.318 91.0978C124.735 89.6698 119.141 86.6444 116.463 85.2267L119.146 77.69C121.965 79.1824 126.743 81.7358 131.31 82.9042C136.167 84.1467 138.742 83.3666 139.82 81.2558L146.487 85.9363ZM116.463 85.2267C92.6995 72.6448 23.8309 24.031 2.00534 8.06241L5.71055 1.16667C27.694 17.2508 96.0238 65.4477 119.146 77.69L116.463 85.2267ZM6.5985 2.02902C7.9863 3.79746 11.2177 6.90645 14.6672 10.0324C18.0107 13.0624 21.2003 15.7907 22.3188 16.7621L18.0426 23.2021C16.9805 22.2797 13.6845 19.4598 10.2498 16.3471C6.92092 13.3305 3.08128 9.70256 1.11742 7.20007L6.5985 2.02902ZM22.3188 16.7621C41.9525 33.8137 62.4028 49.8559 80.4946 70.4047L75.3536 75.9848C57.7987 56.0459 38.1156 40.6352 18.0426 23.2021L22.3188 16.7621ZM80.4946 70.4047C84.9219 75.4332 86.8824 81.8516 87.3274 88.1063C87.7718 94.3526 86.7393 100.741 84.8915 106.236L77.7746 102.627C79.3336 97.9912 80.1327 92.777 79.789 87.9459C79.4459 83.1232 77.9985 78.9889 75.3536 75.9848L80.4946 70.4047ZM84.8915 106.236C80.7439 118.569 75.0566 129.332 61.6067 131.217L59.9454 122.866C69.371 121.544 73.8078 114.424 77.7746 102.627L84.8915 106.236ZM61.3998 122.979C70.1109 125.544 82.83 131.003 90.9646 136.163L87.7246 143.376C80.338 138.691 68.3128 133.506 60.1523 131.103L61.3998 122.979ZM90.9646 136.163C93.9047 138.028 95.8388 140.656 96.7433 143.773C97.593 146.702 97.416 149.655 96.941 152.208C96.028 157.115 93.5324 162.522 92.314 165.783L85.2866 161.923C86.8684 157.688 88.7945 153.686 89.5285 149.741C89.877 147.868 89.8297 146.536 89.566 145.627C89.3569 144.906 88.9342 144.144 87.7246 143.376L90.9646 136.163ZM92.314 165.783C86.4049 181.603 79.2078 194.35 70.3799 207.572L64.1531 202.14C72.7762 189.225 79.6519 177.007 85.2866 161.923L92.314 165.783ZM70.3799 207.572C62.7985 218.928 51.5255 237.176 42.5902 251.938C38.1273 259.311 34.2612 265.792 31.7467 270.08C30.4832 272.235 29.5809 273.802 29.1144 274.648C28.998 274.86 28.9229 275.001 28.8807 275.083C28.8585 275.126 28.8592 275.127 28.8722 275.098C28.8786 275.084 28.8989 275.04 28.925 274.975C28.9409 274.935 29.0093 274.765 29.0716 274.527C29.1004 274.418 29.1659 274.153 29.1956 273.799C29.2094 273.633 29.3205 272.538 28.7163 271.297C28.3791 270.712 27.4295 269.675 26.8281 269.274C26.2569 269.016 25.2165 268.809 24.7716 268.818C23.943 268.891 23.3935 269.263 23.2775 269.34C22.9316 269.569 22.7107 269.818 22.6895 269.841C22.6202 269.916 22.5733 269.975 22.5582 269.994C22.5154 270.047 22.5299 270.034 22.6456 269.863L28.8477 275.331C28.7311 275.504 28.579 275.725 28.4324 275.909C28.3914 275.961 28.3224 276.045 28.235 276.14C28.1957 276.183 27.9605 276.444 27.6043 276.681C27.4831 276.761 26.9293 277.135 26.0974 277.208C25.6509 277.217 24.609 277.01 24.0367 276.752C23.4342 276.349 22.4836 275.312 22.1457 274.725C21.5401 273.482 21.6508 272.382 21.6651 272.211C21.6952 271.85 21.7623 271.578 21.7934 271.459C21.9001 271.052 22.0548 270.73 22.0659 270.706C22.1179 270.592 22.1723 270.483 22.2181 270.394C22.3118 270.211 22.4295 269.993 22.5599 269.756C23.0807 268.81 24.0295 267.165 25.2919 265.012C27.8293 260.685 31.7141 254.173 36.1884 246.781C45.1275 232.013 56.4737 213.643 64.1531 202.14L70.3799 207.572ZM22.6456 269.863C40.0905 244.075 53.9072 221.654 77.8638 204.039L82.4493 211.199C59.6377 227.972 46.5277 249.196 28.8477 275.331L22.6456 269.863ZM77.8638 204.039C87.86 196.689 98.1877 189.267 109.021 183.241L112.916 190.845C102.479 196.65 92.4479 203.848 82.4493 211.199L77.8638 204.039ZM109.021 183.241C113.206 180.913 119.128 177.66 125.197 178.067L125.484 186.467C121.691 186.212 117.444 188.326 112.916 190.845L109.021 183.241ZM125.197 178.067C127.012 178.189 128.883 179.122 130.429 180.061C132.091 181.07 133.911 182.424 135.78 183.953C139.527 187.017 143.794 191.051 147.908 195.154C156.127 203.35 164.131 212.225 166.541 214.787L161.605 220.593C159.002 217.825 151.26 209.231 143.177 201.17C139.14 197.144 135.116 193.352 131.704 190.562C129.994 189.163 128.519 188.084 127.327 187.36C126.02 186.565 125.479 186.467 125.484 186.467L125.197 178.067ZM160.301 217.57C160.062 213.741 159.083 209.715 157.786 205.465C157.139 203.345 156.435 201.24 155.721 199.086C155.016 196.958 154.3 194.783 153.676 192.644L160.85 190.778C161.417 192.721 162.079 194.738 162.788 196.876C163.488 198.988 164.235 201.222 164.924 203.48C166.299 207.985 167.536 212.866 167.845 217.811L160.301 217.57ZM153.676 192.644C152.647 189.116 151.151 182.769 152.199 176.711L159.631 179.069C158.953 182.992 159.92 187.588 160.85 190.778L153.676 192.644ZM152.199 176.711C152.418 175.44 152.679 174.083 153.062 172.851C153.445 171.621 154.027 170.254 155.033 169.14C157.373 166.548 160.653 166.637 163.949 167.784L162.357 175.797C161.294 175.427 160.775 175.416 160.591 175.436C160.516 175.444 160.517 175.455 160.557 175.435C160.575 175.426 160.592 175.415 160.607 175.403C160.621 175.392 160.628 175.385 160.626 175.387C160.606 175.409 160.446 175.608 160.236 176.283C160.026 176.957 159.842 177.845 159.631 179.069L152.199 176.711ZM163.949 167.784C176.681 172.211 189.119 181.19 199.714 189.124L195.932 195.963C185.248 187.962 173.771 179.765 162.357 175.797L163.949 167.784ZM199.714 189.124C211.552 197.989 235.274 211.789 248.054 220.004L244.772 227.19C232.665 219.408 208.064 205.048 195.932 195.963L199.714 189.124ZM244.047 226.605C239.225 221.794 234.268 217.165 229.246 212.499C224.242 207.849 219.163 203.156 214.188 198.292L218.855 192.212C223.728 196.976 228.71 201.581 233.746 206.259C238.765 210.922 243.83 215.651 248.779 220.589L244.047 226.605ZM214.188 198.292C208.535 192.765 201.319 186.121 197.623 176.399L204.547 173.788C207.331 181.113 212.791 186.283 218.855 192.212L214.188 198.292ZM197.623 176.399C196.341 173.026 194.914 168.439 194.518 163.788C194.122 159.135 194.725 153.88 198.118 149.977L203.797 156.127C202.298 157.851 201.759 160.442 202.046 163.817C202.334 167.193 203.417 170.813 204.547 173.788L197.623 176.399ZM198.118 149.977C199.813 148.027 202.508 145.782 205.273 143.67C208.096 141.514 211.205 139.336 213.871 137.518C215.207 136.607 216.438 135.781 217.472 135.089C218.516 134.39 219.334 133.845 219.878 133.473C220.16 133.28 220.314 133.17 220.376 133.123C220.452 133.066 220.319 133.159 220.151 133.327C220.101 133.378 219.978 133.504 219.841 133.69C219.809 133.733 219.309 134.356 219.137 135.386C219.033 136.01 218.991 137.164 219.65 138.405C220.316 139.66 221.294 140.24 221.893 140.48C222.86 140.867 223.655 140.714 223.701 140.707C223.928 140.673 224.098 140.622 224.165 140.602C224.248 140.576 224.311 140.552 224.344 140.539C224.381 140.525 224.407 140.514 224.421 140.508C224.436 140.501 224.445 140.497 224.446 140.496C224.449 140.495 224.438 140.5 224.41 140.514C224.383 140.528 224.347 140.546 224.299 140.571C224.102 140.673 223.794 140.84 223.346 141.088L219.461 133.479C219.919 133.225 220.289 133.024 220.564 132.881C220.699 132.811 220.841 132.739 220.975 132.677C221.039 132.647 221.135 132.604 221.245 132.562C221.285 132.546 221.589 132.423 221.985 132.364C222.042 132.355 222.844 132.202 223.816 132.591C224.417 132.832 225.397 133.413 226.064 134.671C226.724 135.913 226.682 137.069 226.577 137.696C226.404 138.731 225.901 139.361 225.863 139.413C225.719 139.607 225.587 139.744 225.525 139.806C225.31 140.023 225.086 140.19 225.031 140.231C224.832 140.382 224.563 140.569 224.283 140.761C223.702 141.159 222.838 141.734 221.819 142.416C220.791 143.104 219.579 143.917 218.268 144.811C215.64 146.604 212.641 148.706 209.955 150.758C207.211 152.853 204.997 154.746 203.797 156.127L198.118 149.977ZM223.346 141.088C219.582 143.174 213.684 145.993 207.129 147.554C200.655 149.097 193.015 149.54 186.078 146.187L188.498 138.517C193.212 140.796 199.007 140.712 204.866 139.316C210.645 137.94 215.978 135.409 219.461 133.479L223.346 141.088ZM185.947 146.12C185.384 145.822 182.981 144.614 180.952 142.278C178.72 139.709 176.977 135.792 178.039 130.86L185.404 133.565C185.2 134.513 185.292 135.119 185.407 135.497C185.53 135.907 185.763 136.318 186.134 136.744C186.952 137.687 188.039 138.271 188.63 138.583L185.947 146.12Z" fill="url(#paint0_linear_1127_1626)"/>
<defs>
<linearGradient id="paint0_linear_1127_1626" x1="28.9936" y1="303.662" x2="3.61401" y2="25.5786" gradientUnits="userSpaceOnUse">
<stop stop-color="#AB814E"/>
<stop offset="1" stop-color="#FFE1B9"/>
</linearGradient>
</defs>
</svg>
