<svg width="59" height="96" viewBox="0 0 59 96" fill="none"
  xmlns="http://www.w3.org/2000/svg">
  <path d="M101 47.9771L89.7982 60.7281L91.3591 77.6073L74.7859 81.3684L66.1091 95.9541L50.5 89.2575L34.8909 96L26.2141 81.4142L9.64091 77.6531L11.2018 60.7281L0 47.9771L11.2018 35.1801L9.64091 18.301L26.2141 14.5858L34.8909 0L50.5 6.69661L66.1091 0L74.7859 14.5858L91.3591 18.3469L89.7982 35.226L101 47.9771ZM88.7423 47.9771L80.3409 38.2991L81.4427 25.5021L68.8636 22.7501L62.3445 11.6044L50.5 16.6957L38.6555 11.6044L32.1364 22.7501L19.5573 25.4563L20.6591 38.2532L12.2577 47.9771L20.6591 57.6092L19.5573 70.452L32.1364 73.204L38.6555 84.3497L50.5 79.2126L62.3445 84.3039L68.8636 73.204L81.4427 70.4061L80.3409 57.6092L88.7423 47.9771Z" fill="url(#paint0_linear_1127_1625)"/>
  <defs>
    <linearGradient id="paint0_linear_1127_1625" x1="59.5316" y1="104.937" x2="107.881" y2="28.5034" gradientUnits="userSpaceOnUse">
      <stop stop-color="#AB814E"/>
      <stop offset="1" stop-color="#FFE1B9"/>
    </linearGradient>
  </defs>
</svg>