<svg width="234" height="104" viewBox="0 0 234 104" fill="none" xmlns="http://www.w3.org/2000/svg">
<g opacity="0.8" filter="url(#filter0_b_737_2504)">
<mask id="path-1-inside-1_737_2504" fill="white">
<path fill-rule="evenodd" clip-rule="evenodd" d="M30.6082 -83.755L121.604 -141.753L122.073 -142.052C135.026 -150.307 149.838 -150.234 155.157 -141.889L206.974 -60.5904C212.293 -52.2447 206.105 -38.7868 193.153 -30.5313L192.684 -30.2324L101.688 27.7656L101.219 28.0646C100.587 28.4671 99.9514 28.8498 99.3124 29.2127C98.7135 29.6388 98.098 30.0537 97.4664 30.4563L96.9974 30.7553L6.00138 88.7532L5.53233 89.0522C-7.42017 97.3077 -22.2324 97.2346 -27.5516 88.8889L-79.3686 7.5907C-84.6879 -0.754986 -78.4999 -14.2129 -65.5474 -22.4684L-65.0784 -22.7674L25.9176 -80.7654L26.3867 -81.0643C27.0182 -81.4669 27.6542 -81.8496 28.2932 -82.2125C28.8921 -82.6386 29.5076 -83.0535 30.1391 -83.456L30.6082 -83.755Z"/>
</mask>
<path fill-rule="evenodd" clip-rule="evenodd" d="M30.6082 -83.755L121.604 -141.753L122.073 -142.052C135.026 -150.307 149.838 -150.234 155.157 -141.889L206.974 -60.5904C212.293 -52.2447 206.105 -38.7868 193.153 -30.5313L192.684 -30.2324L101.688 27.7656L101.219 28.0646C100.587 28.4671 99.9514 28.8498 99.3124 29.2127C98.7135 29.6388 98.098 30.0537 97.4664 30.4563L96.9974 30.7553L6.00138 88.7532L5.53233 89.0522C-7.42017 97.3077 -22.2324 97.2346 -27.5516 88.8889L-79.3686 7.5907C-84.6879 -0.754986 -78.4999 -14.2129 -65.5474 -22.4684L-65.0784 -22.7674L25.9176 -80.7654L26.3867 -81.0643C27.0182 -81.4669 27.6542 -81.8496 28.2932 -82.2125C28.8921 -82.6386 29.5076 -83.0535 30.1391 -83.456L30.6082 -83.755Z" fill="url(#paint0_linear_737_2504)" fill-opacity="0.46"/>
<path d="M121.604 -141.753L120.352 -143.717L121.604 -141.753ZM30.6082 -83.755L31.86 -81.7909L30.6082 -83.755ZM122.073 -142.052L123.325 -140.088L122.073 -142.052ZM193.153 -30.5313L191.901 -32.4954L193.153 -30.5313ZM192.684 -30.2324L193.936 -28.2682L192.684 -30.2324ZM101.688 27.7656L100.436 25.8015L101.688 27.7656ZM101.219 28.0646L102.471 30.0287L101.219 28.0646ZM99.3124 29.2127L98.1622 27.1874L98.0589 27.2461L97.9621 27.3149L99.3124 29.2127ZM97.4664 30.4563L96.2146 28.4922L97.4664 30.4563ZM96.9974 30.7553L98.2492 32.7194L96.9974 30.7553ZM6.00138 88.7532L7.25324 90.7174L6.00138 88.7532ZM5.53233 89.0522L4.28047 87.0881L5.53233 89.0522ZM-27.5516 88.8889L-29.5158 90.1408L-27.5516 88.8889ZM-79.3686 7.5907L-81.3327 8.84256L-79.3686 7.5907ZM-65.5474 -22.4684L-66.7993 -24.4325L-65.5474 -22.4684ZM-65.0784 -22.7674L-63.8265 -20.8033L-65.0784 -22.7674ZM25.9176 -80.7654L24.6658 -82.7295L25.9176 -80.7654ZM26.3867 -81.0643L27.6385 -79.1002L26.3867 -81.0643ZM28.2932 -82.2125L29.4434 -80.1872L29.5467 -80.2458L29.6435 -80.3147L28.2932 -82.2125ZM30.1391 -83.456L28.8873 -85.4201L30.1391 -83.456ZM120.352 -143.717L29.3563 -85.7191L31.86 -81.7909L122.856 -139.789L120.352 -143.717ZM120.821 -144.016L120.352 -143.717L122.856 -139.789L123.325 -140.088L120.821 -144.016ZM157.121 -143.141C153.893 -148.206 147.958 -150.493 141.489 -150.525C134.992 -150.557 127.618 -148.348 120.821 -144.016L123.325 -140.088C129.481 -144.011 135.989 -145.894 141.466 -145.867C146.972 -145.839 151.102 -143.917 153.193 -140.637L157.121 -143.141ZM208.938 -61.8423L157.121 -143.141L153.193 -140.637L205.01 -59.3386L208.938 -61.8423ZM194.405 -28.5672C201.202 -32.8992 206.317 -38.6507 209.032 -44.554C211.734 -50.4311 212.167 -56.7767 208.938 -61.8423L205.01 -59.3386C207.101 -56.0584 207.099 -51.5023 204.799 -46.5001C202.511 -41.5241 198.057 -36.4189 191.901 -32.4954L194.405 -28.5672ZM193.936 -28.2682L194.405 -28.5672L191.901 -32.4954L191.432 -32.1965L193.936 -28.2682ZM102.94 29.7297L193.936 -28.2682L191.432 -32.1965L100.436 25.8015L102.94 29.7297ZM102.471 30.0287L102.94 29.7297L100.436 25.8015L99.967 26.1005L102.471 30.0287ZM100.463 31.238C101.136 30.8556 101.806 30.4525 102.471 30.0287L99.967 26.1005C99.3688 26.4817 98.7668 26.844 98.1622 27.1874L100.463 31.238ZM98.7183 32.4204C99.3832 31.9966 100.032 31.5596 100.663 31.1105L97.9621 27.3149C97.3955 27.7181 96.8128 28.1109 96.2146 28.4922L98.7183 32.4204ZM98.2492 32.7194L98.7183 32.4204L96.2146 28.4922L95.7455 28.7911L98.2492 32.7194ZM7.25324 90.7174L98.2492 32.7194L95.7455 28.7911L4.74952 86.7891L7.25324 90.7174ZM6.78419 91.0163L7.25324 90.7174L4.74952 86.7891L4.28047 87.0881L6.78419 91.0163ZM-29.5158 90.1408C-26.2871 95.2064 -20.3521 97.4932 -13.8836 97.5251C-7.38624 97.5572 -0.0125685 95.3484 6.78419 91.0163L4.28047 87.0881C-1.87527 91.0116 -8.38394 92.8939 -13.8606 92.8669C-19.3662 92.8397 -23.4969 90.9172 -25.5875 87.6371L-29.5158 90.1408ZM-81.3327 8.84256L-29.5158 90.1408L-25.5875 87.6371L-77.4045 6.33883L-81.3327 8.84256ZM-66.7993 -24.4325C-73.596 -20.1005 -78.7117 -14.349 -81.4261 -8.44569C-84.1283 -2.56865 -84.5613 3.777 -81.3327 8.84256L-77.4045 6.33883C-79.4951 3.05871 -79.4938 -1.49745 -77.1938 -6.49967C-74.9058 -11.4756 -70.4513 -16.5808 -64.2956 -20.5043L-66.7993 -24.4325ZM-66.3302 -24.7315L-66.7993 -24.4325L-64.2956 -20.5043L-63.8265 -20.8033L-66.3302 -24.7315ZM24.6658 -82.7295L-66.3302 -24.7315L-63.8265 -20.8033L27.1695 -78.8013L24.6658 -82.7295ZM25.1348 -83.0284L24.6658 -82.7295L27.1695 -78.8013L27.6385 -79.1002L25.1348 -83.0284ZM27.143 -84.2378C26.4695 -83.8553 25.7997 -83.4522 25.1348 -83.0284L27.6385 -79.1002C28.2367 -79.4815 28.8388 -79.8438 29.4434 -80.1872L27.143 -84.2378ZM28.8873 -85.4201C28.2224 -84.9964 27.5741 -84.5593 26.9429 -84.1103L29.6435 -80.3147C30.2101 -80.7178 30.7928 -81.1106 31.391 -81.4919L28.8873 -85.4201ZM29.3563 -85.7191L28.8873 -85.4201L31.391 -81.4919L31.86 -81.7909L29.3563 -85.7191Z" fill="url(#paint1_linear_737_2504)" mask="url(#path-1-inside-1_737_2504)"/>
</g>
<g opacity="0.5">
<g filter="url(#filter1_b_737_2504)">
<path d="M231.664 -36.7493L90.4158 55.4741L94.1371 -134.435L231.664 -36.7493Z" fill="url(#paint2_linear_737_2504)" fill-opacity="0.5"/>
</g>
</g>
<defs>
<filter id="filter0_b_737_2504" x="-98.9555" y="-165.876" width="325.517" height="278.752" filterUnits="userSpaceOnUse" color-interpolation-filters="sRGB">
<feFlood flood-opacity="0" result="BackgroundImageFix"/>
<feGaussianBlur in="BackgroundImageFix" stdDeviation="8.8398"/>
<feComposite in2="SourceAlpha" operator="in" result="effect1_backgroundBlur_737_2504"/>
<feBlend mode="normal" in="SourceGraphic" in2="effect1_backgroundBlur_737_2504" result="shape"/>
</filter>
<filter id="filter1_b_737_2504" x="87.6986" y="-137.153" width="146.683" height="195.344" filterUnits="userSpaceOnUse" color-interpolation-filters="sRGB">
<feFlood flood-opacity="0" result="BackgroundImageFix"/>
<feGaussianBlur in="BackgroundImageFix" stdDeviation="1.35866"/>
<feComposite in2="SourceAlpha" operator="in" result="effect1_backgroundBlur_737_2504"/>
<feBlend mode="normal" in="SourceGraphic" in2="effect1_backgroundBlur_737_2504" result="shape"/>
</filter>
<linearGradient id="paint0_linear_737_2504" x1="181.703" y1="-167.765" x2="130.467" y2="123.394" gradientUnits="userSpaceOnUse">
<stop stop-color="white"/>
<stop offset="0.429606" stop-color="#FF8C00" stop-opacity="0.12"/>
<stop offset="0.653836" stop-color="#FF9008" stop-opacity="0.1904"/>
<stop offset="1" stop-color="#FFD199"/>
</linearGradient>
<linearGradient id="paint1_linear_737_2504" x1="124.741" y1="-160.242" x2="154.889" y2="-19.9438" gradientUnits="userSpaceOnUse">
<stop stop-color="#D6B285"/>
<stop offset="1" stop-color="white" stop-opacity="0"/>
</linearGradient>
<linearGradient id="paint2_linear_737_2504" x1="231.664" y1="-36.7493" x2="45.8138" y2="-40.3911" gradientUnits="userSpaceOnUse">
<stop stop-color="#AB814E" stop-opacity="0.17"/>
<stop offset="0.0001" stop-color="#DBB88B"/>
<stop offset="0.270833" stop-color="#A18668" stop-opacity="0.72924"/>
<stop offset="0.536458" stop-color="#685546" stop-opacity="0.463588"/>
<stop offset="1" stop-color="#05000A" stop-opacity="0"/>
</linearGradient>
</defs>
</svg>
