<svg xmlns="http://www.w3.org/2000/svg" width="14" height="15" viewBox="0 0 14 15" fill="none">
  <g opacity="0.4">
    <path d="M8.98192 2.51809C9.03434 2.46365 9.10072 2.42833 9.17203 2.41693C9.24334 2.40552 9.31613 2.41859 9.38051 2.45435C9.44489 2.49012 9.49773 2.54684 9.53185 2.61681C9.56598 2.68678 9.57973 2.76662 9.57124 2.84545L9.45885 3.91355C9.37045 4.75094 9.44906 5.59967 9.68917 6.40048C9.92927 7.20129 10.3251 7.93487 10.849 8.55L11.5163 9.33448C11.5658 9.39228 11.5979 9.46544 11.6083 9.54402C11.6188 9.6226 11.607 9.70278 11.5746 9.77367C11.5422 9.84456 11.4907 9.90272 11.4272 9.94025C11.3638 9.97778 11.2913 9.99285 11.2198 9.98342L10.2508 9.85893C9.49063 9.76076 8.72033 9.84655 7.99369 10.1103C7.26704 10.3741 6.60157 10.8095 6.04373 11.3861L5.33231 12.1206C5.27989 12.175 5.21352 12.2103 5.1422 12.2217C5.07089 12.2331 4.9981 12.22 4.93372 12.1843C4.86934 12.1485 4.8165 12.0918 4.78238 12.0218C4.74826 11.9519 4.73451 11.872 4.743 11.7932L4.85507 10.7258C4.94346 9.88839 4.86486 9.03966 4.62475 8.23885C4.38464 7.43804 3.98882 6.70446 3.46491 6.08933L2.79695 5.30451C2.74749 5.2467 2.71537 5.17354 2.70495 5.09496C2.69454 5.01639 2.70633 4.9362 2.73873 4.86531C2.77113 4.79442 2.82256 4.73626 2.88604 4.69873C2.94952 4.6612 3.02197 4.64613 3.09354 4.65556L4.06312 4.7804C4.82329 4.87857 5.59358 4.79278 6.32023 4.52901C7.04687 4.26524 7.71235 3.82985 8.27019 3.25324L8.98192 2.51809Z" fill="url(#paint0_linear_737_2346)"/>
  </g>
  <defs>
    <linearGradient id="paint0_linear_737_2346" x1="5.30956" y1="13.5288" x2="13.6447" y2="9.22607" gradientUnits="userSpaceOnUse">
      <stop stop-color="#AB814E"/>
      <stop offset="1" stop-color="#FFE1B9"/>
    </linearGradient>
  </defs>
</svg>